<svg width="125px" height="118px" viewBox="0 0 125 118" version="1.1" xmlns="http://www.w3.org/2000/svg" xmlns:xlink="http://www.w3.org/1999/xlink">
    <g id="Landing-page" stroke="none" stroke-width="1" fill="none" fill-rule="evenodd">
        <g id="Generic---Desktop" transform="translate(-536.000000, -3092.000000)" fill="#000000">
            <g id="002-stadistics" transform="translate(536.000000, 3092.000000)">
                <path d="M28.8777617,8.60531352 C28.2608939,7.13129431 26.138677,7.07237223 25.4672953,8.5348002 C25.1316043,9.26698031 25.3047098,10.1575738 25.8919299,10.7071917 C26.4877572,11.2635712 27.3982351,11.361131 28.099265,10.9496418 C28.8892383,10.4850264 29.2335367,9.45920177 28.8777617,8.60531352 Z" id="Path"></path>
                <path d="M41.5265815,8.60421591 C40.8954929,7.09747069 38.7163247,7.08201689 38.0861922,8.60421591 C37.7677794,9.37304256 38.0087405,10.2867482 38.6532157,10.8025188 C39.2517938,11.2815865 40.1066319,11.3337429 40.7606695,10.9406369 C41.5418807,10.471228 41.8803735,9.45320895 41.5265815,8.60421591 Z" id="Path"></path>
                <path d="M34.8293438,8.62184417 C34.5417002,7.93767878 33.870851,7.47613104 33.1283296,7.46845457 C32.3084028,7.4598186 31.5697041,8.01060525 31.3288864,8.79456501 C31.1062256,9.52095099 31.3671114,10.3356164 31.957688,10.8058003 C32.5778891,11.2990135 33.4675768,11.3335576 34.1279143,10.9027157 C34.8675688,10.4181383 35.1733691,9.44130754 34.8293438,8.62184417 Z" id="Path"></path>
                <path d="M116.585101,2.0955383e-14 L24.7839467,2.0955383e-14 C20.143581,2.0955383e-14 16.3690476,3.79691333 16.3690476,8.46265251 L16.3690476,41.2773913 C16.3690476,42.3103822 17.2014687,43.1475271 18.2286305,43.1475271 C19.2557923,43.1475271 20.089168,42.3103822 20.089168,41.2773913 L20.089168,18.2079033 L75.414623,18.2079033 L75.414623,42.5465493 C75.414623,43.2598504 75.8184236,43.9117099 76.456104,44.2256394 C76.7157583,44.3542831 76.9954593,44.4166849 77.2742058,44.4166849 C77.6789611,44.4166849 78.0818072,44.284201 78.4140119,44.0249932 L101.907951,25.715327 C102.299342,25.410998 102.553269,24.9617046 102.614364,24.46825 C102.676414,23.9747951 102.53895,23.4775004 102.234429,23.0848488 C100.827332,21.2732747 99.2522229,19.6450661 97.5425139,18.2079033 L121.27988,18.2079033 L121.27988,90.8081488 C121.27988,93.4107865 119.174007,95.5295698 116.585101,95.5295698 L62.7660228,95.5295698 L62.7660228,87.2838839 C65.3377456,87.9520638 67.9906106,88.2909539 70.6845239,88.2909539 C88.1205,88.2909539 102.306025,74.0258883 102.306025,56.4919252 C102.306025,54.4749051 102.117011,52.4550048 101.743759,50.4907861 C101.550927,49.4760359 100.575314,48.8116961 99.5672447,49.0046618 C98.5582204,49.1985877 97.8966748,50.1787769 98.0895061,51.1935271 C98.4188472,52.9273389 98.585904,54.7101121 98.585904,56.4919252 C98.585904,65.1609837 94.6557692,72.9247354 88.4927984,78.0752892 L73.2447914,56.8596162 L93.8042559,40.7820166 C94.8791484,42.3775843 95.7869838,44.0787548 96.5124884,45.858648 C96.9019699,46.8148365 97.9883174,47.2718102 98.9391103,46.8801185 C99.8899032,46.4874668 100.344298,45.3949541 99.9548168,44.4387656 C98.8656053,41.768926 97.4165052,39.2565311 95.6466559,36.970703 C95.0156578,36.1556385 93.8472136,36.0087542 93.0377031,36.643333 L72.5441066,52.6681311 L72.5441066,26.5639926 C72.5441066,25.5310015 71.7116855,24.6928966 70.6845239,24.6928966 C53.2485476,24.6928966 39.0649324,38.9579622 39.0649324,56.4919252 C39.0649324,66.0163693 43.2098547,74.8755136 50.4696741,80.9457747 L50.4696741,95.5295698 L45.7787139,95.5295698 L45.7787139,83.8028199 C45.7787139,82.7698291 44.9462928,81.9317242 43.9181764,81.9317242 L35.3429027,81.9317242 C34.3147863,81.9317242 33.4823652,82.7698291 33.4823652,83.8028199 L33.4823652,95.5295698 L28.6653963,95.5295698 L28.6653963,47.5137374 C28.6653963,46.4797866 27.8329752,45.6426416 26.8058134,45.6426416 L18.2295851,45.6426416 C17.2024233,45.6426416 16.3700022,46.4797866 16.3700022,47.5137374 L16.3700022,116.129864 C16.3700022,117.162855 17.2024233,118 18.2295851,118 L26.8058134,118 C27.8329752,118 28.6653963,117.162855 28.6653963,116.129864 L28.6653963,99.2708014 L33.4823652,99.2708014 L33.4823652,116.129864 C33.4823652,117.162855 34.3147863,118 35.3429027,118 L43.9181764,118 C44.9462928,118 45.7787139,117.162855 45.7787139,116.129864 L45.7787139,99.2708014 L50.4696741,99.2708014 L50.4696741,116.129864 C50.4696741,117.162855 51.3020952,118 52.3302116,118 L60.9054851,118 C61.9336017,118 62.7660228,117.162855 62.7660228,116.129864 L62.7660228,99.2708014 L116.585101,99.2708014 C121.224512,99.2708014 125,95.474848 125,90.8081488 L125,8.46265251 C125,3.79691333 121.224512,0 116.585101,0 L116.585101,2.0955383e-14 Z M20.0901228,114.258768 L20.0901228,49.3838732 L24.9452759,49.3838732 L24.9452759,114.258768 L20.0901228,114.258768 Z M37.2024856,114.258768 L37.2024856,85.6739157 L42.0585935,85.6739157 L42.0585935,114.258768 L37.2024856,114.258768 Z M42.7850527,56.4919252 C42.7850527,41.6498825 54.3043478,29.4623188 68.8239862,28.4955699 L68.8239862,56.4919252 C68.8239862,56.8932173 68.9557227,57.2724284 69.181011,57.5853979 L69.1781471,57.5882778 L85.4790904,80.2699145 C81.1881124,82.9800754 76.1153078,84.5497223 70.6845239,84.5497223 C67.9782007,84.5497223 65.3215173,84.1618705 62.7660228,83.4005679 L62.7660228,68.8388535 C62.7660228,67.8049027 61.9336017,66.9677577 60.9054851,66.9677577 L52.3302116,66.9677577 C51.3020952,66.9677577 50.4696741,67.8049027 50.4696741,68.8388535 L50.4696741,75.8355422 C45.5448342,70.6485076 42.7850527,63.791983 42.7850527,56.4919252 Z M54.1897945,114.258768 L54.1897945,70.7089893 L59.0459024,70.7089893 L59.0459024,114.258768 L54.1897945,114.258768 Z M79.1347433,38.7304354 L79.1347433,14.6529172 C86.4642493,15.1329315 93.2181246,18.44215 98.1047799,23.9469544 L79.1347433,38.7304354 Z M91.9866759,14.4666715 C87.5219587,12.1136412 82.500703,10.8502438 77.2742058,10.8502438 C76.247044,10.8502438 75.414623,11.6883487 75.414623,12.7213396 L75.414623,14.4666715 L20.089168,14.4666715 L20.089168,8.46265251 C20.089168,5.85905484 22.1950407,3.74123154 24.7839467,3.74123154 L116.585101,3.74123154 C119.174007,3.74123154 121.27988,5.85905484 121.27988,8.46265251 L121.27988,14.4666715 L91.9866759,14.4666715 Z" id="Shape" fill-rule="nonzero"></path>
                <path d="M10.7349419,58.2531646 L1.91386764,58.2531646 C0.856281497,58.2531646 0,59.0927998 0,60.1276769 L0,116.126449 C0,117.161326 0.856281497,118 1.91386764,118 L10.7349419,118 C11.7915461,118 12.6488095,117.161326 12.6488095,116.126449 L12.6488095,100.981274 C12.6488095,99.9463976 11.7915461,99.106762 10.7349419,99.106762 C9.67833765,99.106762 8.82107424,99.9463976 8.82107424,100.981274 L8.82107424,114.251937 L3.82675337,114.251937 L3.82675337,62.0012274 L8.82107424,62.0012274 L8.82107424,94.733541 C8.82107424,95.7684182 9.67833765,96.6080535 10.7349419,96.6080535 C11.7915461,96.6080535 12.6488095,95.7684182 12.6488095,94.733541 L12.6488095,60.1276769 C12.6488095,59.0927998 11.7915461,58.2531646 10.7349419,58.2531646 L10.7349419,58.2531646 Z" id="Path"></path>
                <path d="M116.47344,86.6329114 L97.0691657,86.6329114 C96.058272,86.6329114 95.2380952,87.4692214 95.2380952,88.5 C95.2380952,89.5307786 96.058272,90.3670886 97.0691657,90.3670886 L116.47344,90.3670886 C117.484334,90.3670886 118.303571,89.5307786 118.303571,88.5 C118.303571,87.4692214 117.484334,86.6329114 116.47344,86.6329114 Z" id="Path"></path>
                <path d="M116.483407,78.4177215 L103.010641,78.4177215 C102.005252,78.4177215 101.190476,79.2542462 101.190476,80.2852892 C101.190476,81.3163323 102.005252,82.1518987 103.010641,82.1518987 L116.483407,82.1518987 C117.488796,82.1518987 118.303571,81.3163323 118.303571,80.2852892 C118.303571,79.2542462 117.488796,78.4177215 116.483407,78.4177215 L116.483407,78.4177215 Z" id="Path"></path>
            </g>
        </g>
    </g>
</svg>
