<svg width="112px" height="109px" viewBox="0 0 112 109" version="1.1" xmlns="http://www.w3.org/2000/svg" xmlns:xlink="http://www.w3.org/1999/xlink">
    <g id="Landing-page" stroke="none" stroke-width="1" fill="none" fill-rule="evenodd">
        <g id="Generic---Desktop" transform="translate(-169.000000, -2836.000000)" fill="#000000">
            <g id="005-calendar" transform="translate(169.000000, 2836.000000)">
                <path d="M1.64521759,80.4344828 C2.55351481,80.4344828 3.29043519,79.6947028 3.29043519,78.7809585 L3.29043519,30.6212027 L100.496231,30.6212027 L100.496231,48.7970516 C100.496231,49.7107959 101.233152,50.4505758 102.141449,50.4505758 C103.050603,50.4505758 103.786667,49.7107959 103.786667,48.7970516 L103.786667,16.1184169 C103.786667,10.5748045 99.2991644,6.06464466 93.7842579,6.06464466 L89.4698461,6.06464466 L89.4698461,4.01668606 C89.4698461,1.80165249 87.6772444,0 85.4733383,0 L82.4168327,0 C80.2137834,0 78.4211818,1.80165249 78.4211818,4.01668606 L78.4211818,6.06464466 L67.5096187,6.06464466 L67.5096187,4.01668606 C67.5096187,1.80165249 65.7170171,0 63.513111,0 L60.4566051,0 C58.2535561,0 56.4609544,1.80165249 56.4609544,4.01668606 L56.4609544,6.06464466 L45.5485346,6.06464466 L45.5485346,4.01668606 C45.5485346,1.80165249 43.7559329,0 41.5520268,0 L38.496378,0 C36.2924717,0 34.4998703,1.80165249 34.4998703,4.01668606 L34.4998703,6.06464466 L23.5883072,6.06464466 L23.5883072,4.01668606 C23.5883072,1.80165249 21.7957056,0 19.5917995,0 L16.5361505,0 C14.3322446,0 12.5396427,1.80165249 12.5396427,4.01668606 L12.5396427,6.06464466 L10.0032656,6.06464466 C4.48750231,6.06464466 0,10.5748045 0,16.1184169 L0,78.7809585 C0,79.6947028 0.73692038,80.4344828 1.64521759,80.4344828 L1.64521759,80.4344828 Z M81.711617,4.01668606 C81.711617,3.62569635 82.028664,3.30704856 82.4176895,3.30704856 L85.4741954,3.30704856 C85.8632207,3.30704856 86.1794109,3.62569635 86.1794109,4.01668606 L86.1794109,12.0500582 C86.1794109,12.4410479 85.8632207,12.7596957 85.4741954,12.7596957 L82.4176895,12.7596957 C82.028664,12.7596957 81.711617,12.441909 81.711617,12.0500582 L81.711617,4.01668606 Z M59.7513896,4.01668606 C59.7513896,3.62569635 60.0675798,3.30704856 60.4566051,3.30704856 L63.513111,3.30704856 C63.9021365,3.30704856 64.2191836,3.62569635 64.2191836,4.01668606 L64.2191836,12.0500582 C64.2191836,12.4410479 63.9021365,12.7596957 63.513111,12.7596957 L60.4566051,12.7596957 C60.0675798,12.7596957 59.7513896,12.441909 59.7513896,12.0500582 L59.7513896,4.01668606 Z M37.7903055,4.01668606 C37.7903055,3.62569635 38.1073525,3.30704856 38.496378,3.30704856 L41.5528837,3.30704856 C41.9419092,3.30704856 42.2589562,3.62569635 42.2589562,4.01668606 L42.2589562,12.0500582 C42.2589562,12.4410479 41.9419092,12.7596957 41.5528837,12.7596957 L38.496378,12.7596957 C38.1073525,12.7596957 37.7903055,12.441909 37.7903055,12.0500582 L37.7903055,4.01668606 Z M15.8300779,4.01668606 C15.8300779,3.62569635 16.1471252,3.30704856 16.5361505,3.30704856 L19.5926563,3.30704856 C19.9816819,3.30704856 20.2978721,3.62569635 20.2978721,4.01668606 L20.2978721,12.0500582 C20.2978721,12.4410479 19.9816819,12.7596957 19.5926563,12.7596957 L16.5361505,12.7596957 C16.1471252,12.7596957 15.8300779,12.441909 15.8300779,12.0500582 L15.8300779,4.01668606 Z M10.0032656,9.37169322 L12.5396427,9.37169322 L12.5396427,12.0500582 C12.5396427,14.2650917 14.3322446,16.0667442 16.5361505,16.0667442 L19.5926563,16.0667442 C21.7957056,16.0667442 23.5883072,14.2650917 23.5883072,12.0500582 L23.5883072,9.37169322 L34.5007271,9.37169322 L34.5007271,12.0500582 C34.5007271,14.2650917 36.2933288,16.0667442 38.496378,16.0667442 L41.5528837,16.0667442 C43.7567897,16.0667442 45.5493914,14.2650917 45.5493914,12.0500582 L45.5493914,9.37169322 L56.4609544,9.37169322 L56.4609544,12.0500582 C56.4609544,14.2650917 58.2535561,16.0667442 60.4574622,16.0667442 L63.5139678,16.0667442 C65.7170171,16.0667442 67.5096187,14.2650917 67.5096187,12.0500582 L67.5096187,9.37169322 L78.4211818,9.37169322 L78.4211818,12.0500582 C78.4211818,14.2650917 80.2137834,16.0667442 82.4176895,16.0667442 L85.4741954,16.0667442 C87.6772444,16.0667442 89.4698461,14.2650917 89.4698461,12.0500582 L89.4698461,9.37169322 L93.7842579,9.37169322 C97.4859975,9.37169322 100.497088,12.3979872 100.497088,16.1184169 L100.497088,27.3141542 L3.29043519,27.3141542 L3.29043519,16.1184169 C3.29043519,12.3979872 6.30152603,9.37169322 10.0032656,9.37169322 Z" id="Shape" fill-rule="nonzero"></path>
                <path d="M18.5238162,95.9602328 L4.25663447,95.9602328 C3.71379646,95.9602328 3.2723676,95.5194806 3.2723676,94.9774742 L3.2723676,86.5785043 C3.2723676,85.6757278 2.5394936,84.9448276 1.6361838,84.9448276 C0.732873993,84.9448276 0,85.6757278 0,86.5785043 L0,94.9774742 C0,97.3207793 1.90973322,99.2275862 4.25663447,99.2275862 L18.5238162,99.2275862 C19.427126,99.2275862 20.16,98.4958352 20.16,97.5939095 C20.16,96.691133 19.427126,95.9602328 18.5238162,95.9602328 L18.5238162,95.9602328 Z" id="Path"></path>
                <path d="M18.5237816,35.3310345 L12.8362184,35.3310345 C11.9328895,35.3310345 11.2,36.004454 11.2,36.8344828 C11.2,37.6652945 11.9328895,38.337931 12.8362184,38.337931 L18.5237816,38.337931 C19.4271105,38.337931 20.16,37.6652945 20.16,36.8344828 C20.16,36.004454 19.4271105,35.3310345 18.5237816,35.3310345 Z" id="Path"></path>
                <path d="M30.0095517,38.337931 L35.697115,38.337931 C36.6004439,38.337931 37.3333333,37.6652945 37.3333333,36.8344828 C37.3333333,36.004454 36.6004439,35.3310345 35.697115,35.3310345 L30.0095517,35.3310345 C29.1062228,35.3310345 28.3733333,36.004454 28.3733333,36.8344828 C28.3733333,37.6652945 29.1062228,38.337931 30.0095517,38.337931 Z" id="Path"></path>
                <path d="M47.9297074,38.337931 L53.6169593,38.337931 C54.5203741,38.337931 55.2533333,37.6652945 55.2533333,36.8344828 C55.2533333,36.004454 54.5203741,35.3310345 53.6169593,35.3310345 L47.9297074,35.3310345 C47.0254403,35.3310345 46.2933333,36.004454 46.2933333,36.8344828 C46.2933333,37.6652945 47.0254403,38.337931 47.9297074,38.337931 Z" id="Path"></path>
                <path d="M65.1028851,38.337931 L70.7904483,38.337931 C71.6937774,38.337931 72.4266667,37.6652945 72.4266667,36.8344828 C72.4266667,36.004454 71.6937774,35.3310345 70.7904483,35.3310345 L65.1028851,35.3310345 C64.1995562,35.3310345 63.4666667,36.004454 63.4666667,36.8344828 C63.4666667,37.6652945 64.1995562,38.337931 65.1028851,38.337931 Z" id="Path"></path>
                <path d="M88.7102926,35.3310345 L83.0230407,35.3310345 C82.1187734,35.3310345 81.3866667,36.004454 81.3866667,36.8344828 C81.3866667,37.6652945 82.1187734,38.337931 83.0230407,38.337931 L88.7102926,38.337931 C89.6137075,38.337931 90.3466667,37.6652945 90.3466667,36.8344828 C90.3466667,36.004454 89.6137075,35.3310345 88.7102926,35.3310345 L88.7102926,35.3310345 Z" id="Path"></path>
                <path d="M18.5237816,43.6 L12.8362184,43.6 C11.9328895,43.6 11.2,44.2726365 11.2,45.1034483 C11.2,45.9342602 11.9328895,46.6068966 12.8362184,46.6068966 L18.5237816,46.6068966 C19.4271105,46.6068966 20.16,45.9342602 20.16,45.1034483 C20.16,44.2726365 19.4271105,43.6 18.5237816,43.6 Z" id="Path"></path>
                <path d="M30.0095517,46.6068966 L35.697115,46.6068966 C36.6004439,46.6068966 37.3333333,45.9342602 37.3333333,45.1034483 C37.3333333,44.2726365 36.6004439,43.6 35.697115,43.6 L30.0095517,43.6 C29.1062228,43.6 28.3733333,44.2726365 28.3733333,45.1034483 C28.3733333,45.9342602 29.1062228,46.6068966 30.0095517,46.6068966 Z" id="Path"></path>
                <path d="M47.9297074,46.6068966 L53.6169593,46.6068966 C54.5203741,46.6068966 55.2533333,45.9342602 55.2533333,45.1034483 C55.2533333,44.2726365 54.5203741,43.6 53.6169593,43.6 L47.9297074,43.6 C47.0254403,43.6 46.2933333,44.2726365 46.2933333,45.1034483 C46.2933333,45.9342602 47.0254403,46.6068966 47.9297074,46.6068966 Z" id="Path"></path>
                <path d="M65.1028851,46.6068966 L70.7904483,46.6068966 C71.6937774,46.6068966 72.4266667,45.9342602 72.4266667,45.1034483 C72.4266667,44.2726365 71.6937774,43.6 70.7904483,43.6 L65.1028851,43.6 C64.1995562,43.6 63.4666667,44.2726365 63.4666667,45.1034483 C63.4666667,45.9342602 64.1995562,46.6068966 65.1028851,46.6068966 Z" id="Path"></path>
                <path d="M88.7102926,43.6 L83.0230407,43.6 C82.1187734,43.6 81.3866667,44.2726365 81.3866667,45.1034483 C81.3866667,45.9342602 82.1187734,46.6068966 83.0230407,46.6068966 L88.7102926,46.6068966 C89.6137075,46.6068966 90.3466667,45.9342602 90.3466667,45.1034483 C90.3466667,44.2726365 89.6137075,43.6 88.7102926,43.6 L88.7102926,43.6 Z" id="Path"></path>
                <path d="M30.277529,79.8613407 L38.7791829,88.3117237 C40.0089602,89.5340846 41.6434961,90.2068966 43.3830973,90.2068966 C45.122698,90.2068966 46.7580952,89.5340846 47.9870114,88.3117237 L71.2692453,65.1698978 C73.8080293,62.6464244 73.8080293,58.5402163 71.2692453,56.016743 C68.7304613,53.4932696 64.5993394,53.4932696 62.0605557,56.016743 L43.3830973,74.5815633 L39.4853575,70.7081856 C36.9474347,68.1847124 32.816313,68.1847124 30.2766679,70.7081856 C27.738745,73.2316592 27.738745,77.3378673 30.277529,79.8613407 L30.277529,79.8613407 Z M32.6156561,73.0322122 C33.2400178,72.4116158 34.0607305,72.1008896 34.8814434,72.1008896 C35.7021561,72.1008896 36.5228687,72.4116158 37.1472304,73.0322122 L42.213603,78.068031 C42.8594946,78.7100274 43.9058386,78.7100274 44.5517301,78.068031 L64.3986826,58.3416255 C65.6491284,57.0995766 67.6815335,57.0995766 68.9302571,58.3407693 C70.1798416,59.5828182 70.1798416,61.6038226 68.9302571,62.8458712 L45.6488843,85.9868411 C45.0434689,86.5886055 44.2391186,86.9198756 43.3830973,86.9198756 C42.5270757,86.9198756 41.7227256,86.5886055 41.11731,85.9868411 L32.6156561,77.5364581 C31.3660714,76.2944093 31.3660714,74.274261 32.6156561,73.0322122 L32.6156561,73.0322122 Z" id="Shape" fill-rule="nonzero"></path>
                <path d="M103.519332,69.7123264 L103.519332,56.5280871 C103.519332,55.6150607 102.787255,54.8758621 101.883026,54.8758621 C100.979648,54.8758621 100.24672,55.6150607 100.24672,56.5280871 L100.24672,67.604879 C97.2630176,66.04301 93.877057,65.1592416 90.2908193,65.1592416 C78.3202169,65.1592416 68.5816386,74.9925622 68.5816386,87.0796207 C68.5816386,90.2455249 69.2506491,93.2556724 70.4514592,95.9766804 L26.2763062,95.9766804 C25.3729286,95.9766804 24.64,96.715879 24.64,97.6289054 C24.64,98.5410713 25.3729286,99.2811304 26.2763062,99.2811304 L72.2641797,99.2811304 C76.1648949,105.138784 82.7893781,109 90.2908193,109 C102.261422,109 112,99.1666795 112,87.0796207 C112,80.0163588 108.672844,73.7232747 103.519332,69.7123264 L103.519332,69.7123264 Z M90.2908193,105.69555 C80.124415,105.69555 71.8542509,97.3449293 71.8542509,87.0796207 C71.8542509,76.8143123 80.1252672,68.4636917 90.2908193,68.4636917 C100.456371,68.4636917 108.727388,76.8143123 108.727388,87.0796207 C108.727388,97.3449293 100.456371,105.69555 90.2908193,105.69555 Z" id="Shape" fill-rule="nonzero"></path>
                <path d="M89.973759,70.662069 C81.1215908,70.662069 73.92,77.9131037 73.92,86.8241378 C73.92,95.7360291 81.1215908,102.986207 89.973759,102.986207 C98.8259273,102.986207 106.026667,95.7360291 106.026667,86.8241378 C106.026667,77.9131037 98.8250759,70.662069 89.973759,70.662069 L89.973759,70.662069 Z M91.4370611,99.6079327 C91.5451699,99.387685 91.6081626,99.1408704 91.6081626,98.8786298 L91.6081626,96.8741184 C91.6081626,95.9657037 90.876086,95.228688 89.973759,95.228688 C89.0714321,95.228688 88.3393555,95.9657037 88.3393555,96.8741184 L88.3393555,98.8786298 C88.3393555,99.1408704 88.4014968,99.387685 88.510457,99.6079327 C82.6283065,98.9300495 77.948975,94.219148 77.2756348,88.2973123 C77.4935552,88.4070077 77.7395672,88.4695683 78.0000502,88.4695683 L79.9902771,88.4695683 C80.8934553,88.4695683 81.6246807,87.7334097 81.6246807,86.8241378 C81.6246807,85.9148662 80.8934553,85.1787074 79.9902771,85.1787074 L78.0000502,85.1787074 C77.7395672,85.1787074 77.4935552,85.2421251 77.2756348,85.3509636 C77.948975,79.4291279 82.6283065,74.7182263 88.510457,74.0403432 C88.4014968,74.2605911 88.3393555,74.5074057 88.3393555,74.769646 L88.3393555,76.7741574 C88.3393555,77.6834291 89.0714321,78.4195879 89.973759,78.4195879 C90.876086,78.4195879 91.6081626,77.6834291 91.6081626,76.7741574 L91.6081626,74.769646 C91.6081626,74.5074057 91.5451699,74.2605911 91.4370611,74.0403432 C97.3192114,74.7182263 101.998543,79.4291279 102.671883,85.3509636 C102.453111,85.2421251 102.207951,85.1787074 101.947468,85.1787074 L99.9563898,85.1787074 C99.0540626,85.1787074 98.3219862,85.9148662 98.3219862,86.8241378 C98.3219862,87.7334097 99.0540626,88.4695683 99.9563898,88.4695683 L101.947468,88.4695683 C102.207951,88.4695683 102.453111,88.4070077 102.671883,88.2973123 C101.997692,94.219148 97.3192114,98.9300495 91.4370611,99.6079327 L91.4370611,99.6079327 Z" id="Shape" fill-rule="nonzero"></path>
                <path d="M93.9749191,85.3421355 L92.0501619,85.3421355 L92.0501619,83.6185874 C92.0501619,82.690725 91.3342055,81.937931 90.4517476,81.937931 C89.5684571,81.937931 88.8533333,82.690725 88.8533333,83.6185874 L88.8533333,87.0227919 C88.8533333,87.9515298 89.5684571,88.7034483 90.4517476,88.7034483 L93.9749191,88.7034483 C94.8573769,88.7034483 95.5733333,87.9515298 95.5733333,87.0227919 C95.5733333,86.0940542 94.8573769,85.3421355 93.9749191,85.3421355 L93.9749191,85.3421355 Z" id="Path"></path>
            </g>
        </g>
    </g>
</svg>
