<svg width="118px" height="106px" viewBox="0 0 118 106" version="1.1" xmlns="http://www.w3.org/2000/svg" xmlns:xlink="http://www.w3.org/1999/xlink">
    <g id="Landing-page" stroke="none" stroke-width="1" fill="none" fill-rule="evenodd">
        <g id="Generic---Desktop" transform="translate(-286.000000, -3102.000000)" fill="#000000">
            <g id="003-diet" transform="translate(286.000000, 3102.000000)">
                <path d="M45.8557003,39.7380697 C44.8710201,38.7003737 43.4689981,38.0926149 42.0094432,38.0708542 C39.0736671,38.0345865 36.6449568,40.28802 36.5951863,43.1122852 C36.5792049,44.0227145 37.3328402,44.7731263 38.2782519,44.7885126 C38.2882973,44.7887324 38.2978862,44.7887324 38.3079316,44.7887324 C39.2401016,44.7887324 40.003554,44.0688734 40.0193071,43.1678956 C40.0368866,42.1592138 40.8980537,41.3498945 41.9557915,41.3674788 C42.4838613,41.3753918 42.9708362,41.5864039 43.3272206,41.9618296 C43.9651052,42.6342109 45.0484132,42.681249 45.7463421,42.0671158 C46.4444993,41.4532025 46.4935849,40.4102312 45.8557003,39.7380697 Z" id="Path"></path>
                <path d="M55.1233828,45.3751217 C54.5772852,44.202907 53.5143071,43.2777597 52.2061907,42.8367692 C49.5757058,41.9506669 46.6433114,43.1820997 45.668697,45.581409 C45.3264062,46.4239112 45.796967,47.3601212 46.7193232,47.6726973 C46.9236051,47.7418936 47.1328752,47.7746479 47.3385822,47.7746479 C48.0623575,47.7746479 48.7426635,47.3690147 49.00918,46.7130604 C49.3018257,45.992465 50.1838006,45.6237076 50.9724235,45.8894299 C51.3688728,46.0230502 51.678621,46.2926769 51.8441843,46.6484194 C52.2292318,47.4750867 53.2758199,47.8607636 54.1808359,47.5089256 C55.0865646,47.1573046 55.5081928,46.202006 55.1233828,45.3751217 Z" id="Path"></path>
                <path d="M65.9466822,30.3777308 C65.252147,29.6851541 64.1271989,29.6865738 63.4343219,30.3803335 L61.7595729,32.0565251 C61.066459,32.7502848 61.0676434,33.8739768 61.7621786,34.5660802 C62.1087355,34.911777 62.5628365,35.084507 63.0169375,35.084507 C63.4722228,35.084507 63.9275082,34.9108305 64.2745389,34.5634774 L65.9492879,32.8872858 C66.6424018,32.1935261 66.6412174,31.0698341 65.9466822,30.3777308 Z" id="Path"></path>
                <path d="M54.9668018,52.2535211 L52.577502,52.2535211 C51.587219,52.2535211 50.7848101,53.0890798 50.7848101,54.1197183 C50.7848101,55.1503568 51.587219,55.9859155 52.577502,55.9859155 L54.9668018,55.9859155 C55.9570848,55.9859155 56.7594937,55.1503568 56.7594937,54.1197183 C56.7594937,53.0890798 55.9570848,52.2535211 54.9668018,52.2535211 Z" id="Path"></path>
                <path d="M72.8909241,52.2535211 L70.5014809,52.2535211 C69.5112376,52.2535211 68.7088608,53.0890798 68.7088608,54.1197183 C68.7088608,55.1503568 69.5114766,55.9859155 70.5014809,55.9859155 L72.8909241,55.9859155 C73.8809285,55.9859155 74.6835443,55.1503568 74.6835443,54.1197183 C74.6835443,53.0890798 73.8809285,52.2535211 72.8909241,52.2535211 Z" id="Path"></path>
                <path d="M117.944495,83.7191756 L117.494391,81.2831961 C117.207459,79.7266834 115.851847,78.5969638 114.271067,78.5969638 C114.072634,78.5969638 113.872588,78.6152186 113.675768,78.6514972 L104.512364,80.3392599 L108.662169,77.5578251 C109.749747,76.8290185 110.299413,75.5253004 110.062262,74.2319806 C109.996348,73.8777445 109.872817,73.5378351 109.693974,73.2196465 L108.438154,70.9900159 C108.007871,70.2240064 107.274061,69.6548717 106.427091,69.4293438 C106.012249,69.3184283 105.578508,69.2937035 105.155369,69.3489301 C105.617457,66.7918679 105.855761,64.1802724 105.855761,61.5217689 C105.855761,60.3421374 105.148225,59.3270304 104.137623,58.8762055 C105.458204,55.7271324 105.548317,52.1219197 104.242947,48.820338 C104.137162,48.5518303 103.979983,48.3122068 103.77648,48.1079376 C103.57459,47.905517 103.33836,47.7490801 103.070326,47.6411686 C101.50614,47.0165763 99.8622124,46.7000052 98.1841754,46.7000052 C97.9696098,46.7000052 97.755966,46.705551 97.5430137,46.7157182 C97.3035575,41.8786514 93.3107007,38.0171779 88.4363041,38.0171779 C87.794451,38.0171779 87.1685001,38.0855758 86.5639827,38.2131285 C86.9838953,35.6944246 86.7366032,33.0594906 85.7582669,30.585615 C85.6531735,30.3136412 85.495303,30.0696273 85.2807373,29.8510315 C85.0742381,29.6439895 84.8320163,29.4843175 84.5632907,29.3773304 C82.8783397,28.7044436 81.1074242,28.3633787 79.2996338,28.3633787 C76.5764248,28.3633787 73.9714458,29.1310057 71.7225398,30.5581172 C70.9009217,28.1718186 69.5460007,25.9315586 67.6529372,24.0291284 C67.0984314,23.4722406 66.360934,23.1653747 65.5761908,23.1653747 C64.7914475,23.1653747 64.0539501,23.4722406 63.4987529,24.0295905 L55.1297712,32.4397508 C53.5810267,31.0546947 51.5429989,30.2267575 49.3309677,30.2267575 C48.8290086,30.2267575 48.3222096,30.2708926 47.8246294,30.3577763 C46.0216788,30.6724987 44.3625402,31.5572801 43.0905877,32.8531417 C41.4595663,32.0640249 39.5911628,31.7948239 37.7955872,32.10816 C37.4005652,32.1770199 37.017297,32.2740709 36.6453218,32.3923807 L36.6453218,25.9116862 C36.6453218,21.4487278 33.0677682,17.8113959 28.6423231,17.7346794 L28.6423231,14.0592203 C29.9970136,13.8242183 31.0313536,12.6404274 31.0313536,11.2160888 L31.0313536,2.8884219 C31.0313536,1.2958616 29.73912,0 28.1505046,0 L14.0940354,0 C12.50542,0 11.2131864,1.2958616 11.2131864,2.8884219 L11.2131864,11.2160888 C11.2131864,12.6404274 12.2475264,13.8242183 13.6022169,14.0592203 L13.6022169,17.7342172 C9.1767718,17.8107026 5.59944868,21.4480346 5.59944868,25.9112241 L5.59944868,76.492344 C2.14842199,79.6171544 0,83.977285 0,88.7988699 C0,98.2835231 8.30260696,106 18.5081876,106 L87.6916623,105.979666 C90.0530366,105.978741 92.2738255,104.938216 93.7843123,103.125211 C95.2556195,101.36027 95.880879,99.0677874 95.5206577,96.8069619 L109.338823,99.2967815 C109.530111,99.3312115 109.726009,99.3487731 109.920294,99.3487731 C110.609393,99.3487731 111.269683,99.1366474 111.828798,98.7359655 C112.547628,98.2211332 113.034146,97.4241599 113.163899,96.5500078 L113.538179,94.0319972 C113.592109,93.671291 113.586116,93.3080431 113.520433,92.9519585 C113.28259,91.6644155 112.304715,90.6428385 111.029075,90.3498369 L106.158596,89.2295914 L115.313012,87.5434462 C116.176345,87.3844675 116.925366,86.8985194 117.422255,86.1750275 C117.918222,85.4533841 118.103518,84.5813118 117.944495,83.7191756 Z M98.1841754,50.1656494 C99.2247381,50.1656494 100.247785,50.3308671 101.231422,50.65645 C102.110427,53.3401406 101.781319,56.2348015 100.404964,58.6259526 L95.7485904,58.6259526 L97.2344171,57.1327541 C97.9087663,56.4552458 97.9073835,55.3578766 97.231421,54.6817548 C96.5554586,54.005633 95.4609665,54.0067883 94.7870782,54.6845277 L94.0009522,55.4745688 C93.6324339,54.2579655 92.9889675,53.1686838 92.1431502,52.2751216 C93.8587535,50.9092447 95.9647693,50.1656494 98.1841754,50.1656494 Z M88.4363041,41.4828221 C91.5579922,41.4828221 94.0975182,44.0366492 94.0975182,47.1757861 C94.0975182,47.2340167 94.0947526,47.291554 94.0931393,47.3493225 C92.2710599,47.9434131 90.5916402,48.9358749 89.159282,50.283728 C88.9313492,50.1970754 88.7001899,50.1166617 88.4628079,50.0508057 C87.9571613,47.3121196 86.116414,45.116919 83.6847469,44.0916447 C84.693966,42.5240404 86.4450613,41.4828221 88.4363041,41.4828221 Z M79.2994033,31.8290229 C80.4734069,31.8290229 81.6271293,32.0194276 82.7389066,32.3960779 C83.6324307,35.0598961 83.4499001,37.9212823 82.3113886,40.3997794 C81.3754583,41.2545212 80.6160665,42.3012853 80.0970528,43.4779128 C79.7884562,43.4959366 79.4798597,43.5301355 79.1749506,43.5832825 C77.8204906,43.8196709 76.5575264,44.408909 75.5006005,45.2634197 C75.1401487,44.6025488 74.6988026,43.9927452 74.193156,43.4437139 L78.1569738,39.4604646 C78.8313229,38.7829563 78.8299401,37.6855871 78.1539777,37.0096964 C77.4782458,36.3335746 76.3837536,36.3347299 75.7094044,37.0124693 L71.3770684,41.3661298 C70.5526846,40.9753841 69.6616956,40.7036414 68.7253045,40.5765508 C69.1297757,38.5084407 70.1306979,36.5597958 71.6789814,35.0037451 C73.7160874,32.9564317 76.4224722,31.8290229 79.2994033,31.8290229 Z M66.0544117,58.6259526 L64.5561397,58.6259526 C64.3037773,57.9821812 63.6799007,57.5258105 62.948165,57.5258105 C62.2164294,57.5258105 61.5925527,57.9824122 61.3401903,58.6259526 L59.5775716,58.6259526 C59.9868827,57.9576873 59.9041447,57.0722127 59.3263616,56.4940662 C58.6506296,55.8179444 57.5561375,55.8190998 56.8817883,56.496608 L55.2526106,58.1335345 C55.1062634,58.2804974 54.9937951,58.4480258 54.9110571,58.6259526 L51.3929642,58.6259526 C50.0753791,56.5987426 49.2712765,54.2059739 49.1760933,51.6318123 L76.5985497,51.6318123 C76.5033664,54.2059739 75.6992638,56.5987426 74.3816787,58.6259526 L70.7206958,58.6259526 C70.6381882,58.4480258 70.525259,58.2802663 70.3791423,58.1333034 L68.750195,56.4963769 C68.0756154,55.8190998 66.9815842,55.8172512 66.3058522,56.4936041 C65.7276082,57.0717506 65.6448702,57.9574563 66.0544117,58.6259526 Z M62.0343597,48.165706 C62.6858925,45.7447463 64.8884745,43.9583152 67.4987542,43.9583152 C70.1092644,43.9583152 72.3118463,45.7449774 72.9633791,48.165706 L62.0343597,48.165706 Z M65.5690462,26.8558536 C67.2132044,28.6374322 68.3003216,30.7526813 68.8333939,32.976073 C67.9509322,33.9375708 67.2178138,35.000048 66.6395698,36.1306918 C66.3770668,35.9694023 66.0693921,35.8748932 65.7391316,35.8748932 L63.4358351,35.8748932 C62.481237,35.8748932 61.7073257,36.6508388 61.7073257,37.6079463 C61.7073257,38.5650538 62.481237,39.3409995 63.4358351,39.3409995 L65.4563474,39.3409995 C65.3427267,39.8195532 65.2544575,40.3038838 65.1903874,40.7919115 C64.504054,40.9726112 63.8486032,41.2300274 63.2350976,41.55769 C62.0829884,39.5642167 60.175175,38.0786436 57.9147456,37.4827043 C57.9140542,37.4778518 57.9131323,37.4729993 57.9122104,37.4681467 C57.7766953,36.6838824 57.5402352,35.9398249 57.2178106,35.2482212 L65.5690462,26.8558536 Z M34.322666,42.4940008 C34.2212602,42.2097801 34.1445143,41.918165 34.0940419,41.6256256 C33.5983054,38.76008 35.5250172,36.0223182 38.3881202,35.5225057 C38.6900332,35.4698209 38.996786,35.4430163 39.2996209,35.4430163 C40.4383629,35.4430163 41.5266324,35.8071886 42.4464299,36.4960194 C42.8269324,36.7811644 43.3081495,36.8964702 43.7764603,36.8151323 C44.2447711,36.7335632 44.658922,36.4625137 44.9216554,36.065298 C45.733133,34.8380653 46.9746637,34.0237614 48.4173929,33.771891 C48.7199973,33.7189751 49.0274415,33.6924016 49.3309677,33.6924016 C51.8919273,33.6924016 54.0684664,35.5294379 54.5058945,38.0608509 C54.5561365,38.3508484 54.5819489,38.6530929 54.5824098,38.9592656 C54.5840231,39.8562939 55.2682824,40.6040486 56.1597323,40.6826137 C58.0922059,40.852915 59.7372859,42.0722912 60.4999043,43.7900935 C59.4789314,45.0187126 58.7711644,46.5188434 58.5024388,48.165706 L48.6448647,48.165706 C47.4192363,48.165706 46.3676112,48.9243212 45.9290307,49.9978898 C43.7603275,48.5169381 41.2044383,47.7190405 38.52594,47.7190405 C36.8479031,47.7190405 35.2039754,48.0358426 33.6386373,48.660666 C33.3731382,48.7669599 33.1357562,48.923859 32.9334054,49.1267418 C32.728289,49.3323974 32.5708794,49.5734073 32.4676297,49.8377557 C32.0698421,50.8436197 31.8045735,51.8776748 31.6612225,52.9181999 C31.0417247,52.2111142 30.6052184,51.3318786 30.4346722,50.3451937 C30.0281268,47.9937872 31.2558294,45.6525479 33.4192318,44.6515364 C34.2323226,44.2753484 34.6243486,43.3390375 34.322666,42.4940008 Z M39.4754679,58.1520204 L39.9470053,58.6259526 L35.7955866,58.6259526 C34.8635743,56.4580187 34.722067,53.9903821 35.4786932,51.6759474 C36.4637131,51.3499023 37.4862992,51.1849157 38.52594,51.1849157 C41.1304581,51.1849157 43.5805626,52.2055684 45.4245364,54.0585489 C45.6697543,54.3051045 45.898148,54.563445 46.1127136,54.8303352 C46.4056384,56.1599336 46.8557422,57.430146 47.4355995,58.6257216 L44.8306206,58.6257216 L41.9228068,55.7035629 C41.2482272,55.0262857 40.153735,55.0244371 39.478464,55.70079 C38.8025016,56.3771429 38.8011187,57.4745121 39.4754679,58.1520204 Z M32.1143224,58.6259526 L25.9523015,58.6259526 C26.2270193,56.9472018 27.2341641,55.5161621 28.6321825,54.6722807 C29.4597929,55.7839766 30.539996,56.6828535 31.7845228,57.2917328 C31.8725615,57.7414023 31.980651,58.1871436 32.1143224,58.6259526 Z M14.6702052,3.46610628 L27.5743348,3.46610628 L27.5743348,10.6384045 L14.6702052,10.6384045 L14.6702052,3.46610628 Z M25.1853043,14.1045107 L25.1853043,17.7307511 L17.0594662,17.7307511 L17.0594662,14.1045107 L25.1853043,14.1045107 Z M9.05669801,32.9395633 L20.2811773,32.9395633 C21.2360059,32.9395633 22.0096867,32.1636177 22.0096867,31.2065102 C22.0096867,30.2494027 21.2360059,29.473457 20.2811773,29.473457 L9.05669801,29.473457 L9.05669801,25.9112241 C9.05669801,23.3116444 11.1594873,21.1968574 13.7441851,21.1968574 L28.5005854,21.1968574 C31.0855136,21.1968574 33.1883029,23.3116444 33.1883029,25.9112241 L33.1883029,29.473457 L29.9608301,29.473457 C29.0060015,29.473457 28.2323207,30.2494027 28.2323207,31.2065102 C28.2323207,32.1636177 29.0060015,32.9395633 29.9608301,32.9395633 L33.1883029,32.9395633 L33.1883029,34.4778213 C31.2078921,36.4246176 30.1793137,39.2795338 30.687265,42.2162502 C30.6881869,42.222027 30.6893392,42.2280349 30.6902611,42.2340428 C27.917271,44.1415567 26.4397412,47.532795 27.0281258,50.9372046 C27.0624655,51.135928 27.105563,51.3314164 27.1525785,51.5248252 C26.2890152,52.0022235 25.5134906,52.6187283 24.8488211,53.3401406 L9.05669801,53.3401406 L9.05669801,32.9395633 Z M9.05646754,56.8060158 L9.05646754,56.8060158 L22.8416759,56.8060158 C22.6582235,57.3901702 22.5287005,57.9981253 22.4655523,58.6259526 L22.1742408,58.6259526 C20.5833208,58.6259526 19.2887824,59.9248182 19.2887824,61.5213067 C19.2887824,64.2731641 19.5439104,66.9746473 20.0382641,69.6176689 C19.5416057,69.5776931 19.0322716,69.5562032 18.5141797,69.5562032 C16.4238357,69.5562032 14.4321319,69.8887184 12.9066647,70.4927452 C10.5731769,71.416578 9.92809723,72.7283837 9.78728133,73.6360414 C9.53998925,73.7594348 9.29707605,73.8897604 9.05646754,74.0230899 L9.05646754,56.8060158 Z M30.9442368,78.0959959 C31.5667306,78.5953463 31.9472332,79.0198287 32.167791,79.3260015 C32.1470488,79.3262325 32.1253849,79.3264636 32.1034904,79.3264636 C31.1251541,79.3264636 29.3673752,78.9310964 27.3685269,77.8217113 C26.624346,77.4083204 25.9387039,76.9413203 25.3855809,76.4715474 C24.7407316,75.9236715 23.7951217,75.9241337 23.1507334,76.4717785 C22.5976104,76.9420136 21.9121988,77.4087825 21.1687093,77.8212492 C19.1694,78.9310964 17.4116212,79.3264636 16.4335153,79.3264636 C16.4111599,79.3264636 16.3897264,79.3262325 16.3687538,79.3260015 C16.5890812,79.0198287 16.9695837,78.5951152 17.592308,78.0955337 C18.1364428,77.6588043 18.3657584,76.9369299 18.1737786,76.2651985 C17.9815684,75.5932361 17.4058595,75.1026665 16.7133034,75.0213285 C15.0265086,74.8230673 13.9599031,74.3925769 13.4604791,74.0792409 C14.0861995,73.6884951 15.6681313,73.0223095 18.5148711,73.0223095 C20.872558,73.0223095 22.5957667,73.5193492 23.4222246,73.9847317 C23.947922,74.2805061 24.5888533,74.2805061 25.1145506,73.9849628 C25.9414695,73.5195802 27.6649087,73.0225406 30.0225955,73.0225406 C32.8695658,73.0225406 34.4512672,73.6889573 35.0767571,74.0794719 C34.5775636,74.393039 33.5107276,74.8232983 31.8234719,75.0215596 C31.1309158,75.1031287 30.5549764,75.5934672 30.3629966,76.2656607 C30.1703255,76.9376232 30.399641,77.6594976 30.9442368,78.0959959 Z M27.4865265,99.1897944 L27.5459872,99.5109869 C27.7515646,100.624069 28.1850748,101.645646 28.7907445,102.533894 L18.5081876,102.533894 C10.2090376,102.533894 3.45701886,96.3725432 3.45701886,88.7988699 C3.45701886,83.623049 6.6116638,79.1087921 11.2569753,76.768015 C11.7905085,77.1673105 12.455639,77.5116104 13.2447611,77.789361 C12.9317857,78.325221 12.713763,78.901519 12.6623687,79.5025418 C12.5941502,80.3015948 12.8379852,81.060441 13.349624,81.6395119 C14.0255865,82.4048281 15.063153,82.792801 16.4335153,82.792801 C18.2597432,82.792801 20.6559182,82.0679226 22.8430588,80.8538611 C23.3466312,80.5744929 23.8227779,80.2794118 24.2685029,79.9711594 C24.7139974,80.2791807 25.1901441,80.5742619 25.693947,80.8540922 C27.8810876,82.0679226 30.2772626,82.7925699 32.1034904,82.792801 L32.1037209,82.792801 C33.4736222,82.792801 34.5111888,82.4048281 35.1869208,81.6397429 C35.69879,81.0606721 35.9428556,80.3018259 35.8744066,79.5025418 C35.8230122,78.901519 35.6049896,78.325221 35.2920141,77.789361 C36.0811363,77.5113793 36.7464972,77.1670794 37.2800304,76.768015 C40.9640602,78.6244616 43.7091637,81.8481715 44.6879609,85.684689 L32.4627899,90.3410561 C28.8843144,91.7043913 26.7914352,95.425603 27.4865265,99.1897944 Z M91.1311656,100.902975 C90.2788952,101.92617 89.0244583,102.513097 87.690049,102.513559 L85.8758055,102.514252 L84.7423642,96.378089 C84.568361,95.4369256 83.6670009,94.814644 82.7278441,94.9895668 C81.7893787,95.1637964 81.1691896,96.067988 81.3429624,97.0091514 L82.3602478,102.515408 L76.4127925,102.517719 L75.6464867,98.3683272 C75.4724834,97.4271638 74.5708929,96.8055754 73.6319666,96.979805 C72.6935012,97.1540346 72.073312,98.0582262 72.2470848,98.9993896 L72.8970044,102.519105 L59.0631672,102.52442 L58.0219131,96.888993 C57.8476794,95.9478297 56.9465498,95.3262413 56.007393,95.5007019 C55.0686972,95.6749315 54.4487384,96.5793542 54.6225113,97.5205176 L55.547379,102.525806 L35.3482483,102.533663 C35.3477874,102.533663 35.3473264,102.533663 35.3468655,102.533663 C33.1869201,102.533663 31.3358018,100.997022 30.9444672,98.8790002 L30.8850065,98.5578077 C30.4943634,96.4420964 31.6738982,94.3492614 33.6898011,93.5811723 L40.4833041,90.9936084 L40.9894117,93.7322945 C41.1435947,94.5667018 41.8700296,95.149932 42.6868079,95.149932 C42.7914404,95.149932 42.8974556,95.1402269 43.0039318,95.1205856 C43.9423972,94.9461249 44.5623559,94.0419333 44.3883526,93.10077 L43.7677025,89.7425751 L53.8518265,85.9016672 C54.7441983,85.5617577 55.1929194,84.5607462 54.8539011,83.6660287 C54.5148827,82.77108 53.5153434,82.3214105 52.6243544,82.66132 L47.931797,84.4486755 C46.6153642,79.775671 43.2334779,75.8721421 38.7488025,73.6358103 C38.6079866,72.7281526 37.9629069,71.4163469 35.6296496,70.4925141 C34.1041825,69.8884873 32.1124787,69.5559722 30.0221346,69.5559722 C28.5835538,69.5559722 27.2097345,69.715182 25.9970123,70.0051795 L25.9970123,68.9584154 C25.9970123,68.001308 25.2233315,67.2253623 24.2685029,67.2253623 C23.8649535,67.2253623 23.494822,67.3649309 23.2005145,67.597391 C22.927871,65.7897011 22.7753012,63.9535891 22.7499497,62.0915968 L79.0504979,62.0915968 C80.0053265,62.0915968 80.7790074,61.3156511 80.7790074,60.3585436 C80.7790074,59.4014361 80.0053265,58.6254905 79.0504979,58.6254905 L78.3431919,58.6254905 C79.4439067,56.3526491 80.0657091,53.8043677 80.0657091,51.1112032 C80.0657091,49.5821881 78.89885,48.3226051 77.411871,48.1795705 C78.0592554,47.5674561 78.8672759,47.1547584 79.7679446,46.9973972 C80.0318304,46.9514135 80.2996341,46.928075 80.5642113,46.928075 C82.7958322,46.928075 84.6921222,48.5287229 85.0730857,50.7336286 C85.1171051,50.9889651 85.1396909,51.2523892 85.1399214,51.5169687 C85.1410738,52.4144591 85.8255635,53.1626759 86.7172439,53.241241 C88.7829279,53.423096 90.4729492,54.9807642 90.8271784,57.0290019 C90.9212093,57.5736428 90.9094554,58.1111203 90.815194,58.6254905 L88.9606187,58.6254905 C88.0057901,58.6254905 87.2321092,59.4014361 87.2321092,60.3585436 C87.2321092,61.3156511 88.0057901,62.0915968 88.9606187,62.0915968 L102.395055,62.0915968 C102.352188,65.2707094 101.943799,68.3761096 101.182102,71.3890802 L91.814503,76.9334638 C91.2415597,74.9342137 89.909916,73.2383635 88.0751609,72.2086988 C86.0173128,71.0540233 83.5718177,70.8735547 81.3662396,71.7135078 L62.0735392,79.0621152 C61.180937,79.4020247 60.7324464,80.4030362 61.0714647,81.2977538 C61.410483,82.1927024 62.4097919,82.6419098 63.3010114,82.3024625 L65.8426117,81.3344945 L66.6317338,85.606355 C66.7859169,86.4407623 67.5123518,87.0242235 68.3293606,87.0242235 C68.4337625,87.0242235 68.5397778,87.0145184 68.646254,86.9948771 C69.5847194,86.8206475 70.2049085,85.9164559 70.0311357,84.9752925 L69.127471,80.0834612 L82.5934813,74.9543172 C83.8412347,74.4792295 85.2235813,74.581133 86.3867529,75.2339164 C87.5478503,75.8853133 88.3521833,77.0083317 88.5937137,78.3143606 L92.0906035,97.242767 C92.331673,98.5481026 91.9820531,99.8820913 91.1311656,100.902975 Z M97.2984872,87.3375595 C96.4920799,87.4861399 95.9009297,88.1821341 95.8827228,89.0040634 C95.8647463,89.8259927 96.4252443,90.547405 97.2242765,90.7311086 L110.093605,93.6907012 L109.772103,95.8533205 L94.8529921,93.1652395 L92.5208872,80.5407562 L105.515591,72.8496974 L106.598098,74.7715378 L95.6375049,82.1176035 C94.9560112,82.5744363 94.6882075,83.4483572 94.9965736,84.2099763 C95.3047092,84.9715954 96.1044329,85.4115598 96.9106097,85.2629794 L114.127946,82.0919543 L114.511445,84.1669966 L97.2984872,87.3375595 Z" id="Shape" fill-rule="nonzero"></path>
            </g>
        </g>
    </g>
</svg>
