<svg width="118px" height="118px" viewBox="0 0 118 118" version="1.1" xmlns="http://www.w3.org/2000/svg" xmlns:xlink="http://www.w3.org/1999/xlink">
    <g id="Landing-page" stroke="none" stroke-width="1" fill="none" fill-rule="evenodd">
        <g id="Generic---Desktop" transform="translate(-661.000000, -2824.000000)">
            <g id="001-computer" transform="translate(661.000000, 2824.000000)">
                <path d="M112.036667,0 L84.584987,0 C81.2972314,0 78.6225538,2.67545318 78.6225538,5.9641623 L78.6225538,21.9691533 L50.4812737,21.9691533 C49.5125924,21.9691533 48.7284644,22.7535087 48.7284644,23.7215707 C48.7284644,24.6896325 49.5125924,25.4748883 50.4812737,25.4748883 L78.6225538,25.4748883 L78.6225538,55.0084328 C78.6225538,58.2971419 81.2972314,60.9725951 84.584987,60.9725951 L100.642955,60.9725951 L100.642955,83.821559 L3.50471869,83.821559 L3.50471869,32.3629869 C3.50471869,28.564582 6.5944168,25.4748883 10.3908205,25.4748883 L44.6385755,25.4748883 C45.607257,25.4748883 46.391385,24.6896325 46.391385,23.7215707 C46.391385,22.7535087 45.607257,21.9691533 44.6385755,21.9691533 L10.3908205,21.9691533 C4.6615549,21.9691533 0,26.6311595 0,32.3629869 L0,86.6023733 C0,92.3855306 4.70296705,97.0898615 10.4844477,97.0898615 L32.3346989,97.0898615 L30.3901337,105.236891 L26.2975442,105.236891 C21.7539234,105.236891 18.0574488,108.933537 18.0574488,113.478475 L18.0574488,116.246682 C18.0574488,117.214744 18.8415768,118 19.8102584,118 L67.5358311,118 C68.5045129,118 69.2886407,117.214744 69.2886407,116.246682 C69.2886407,115.27862 68.5045129,114.493364 67.5358311,114.493364 L21.5621677,114.493364 L21.5621677,113.478475 C21.5621677,110.866959 23.6867853,108.742626 26.2975442,108.742626 L77.8510296,108.742626 C80.4617885,108.742626 82.5864061,110.866959 82.5864061,113.478475 L82.5864061,114.493364 L73.3785296,114.493364 C72.409848,114.493364 71.62572,115.27862 71.62572,116.246682 C71.62572,117.214744 72.409848,118 73.3785296,118 L84.3383152,118 C85.306997,118 86.0911248,117.214744 86.0911248,116.246682 L86.0911248,113.478475 C86.0911248,108.933537 82.3946504,105.236891 77.8510296,105.236891 L73.7584399,105.236891 L71.8138746,97.0898615 L93.6641261,97.0898615 C99.4447065,97.0898615 104.148574,92.3855306 104.148574,86.6023733 L104.148574,60.9725951 L112.037567,60.9725951 C115.324422,60.9725951 118,58.2971419 118,55.0084328 L118,5.9641623 C117.9991,2.67545318 115.324422,2.62086617e-14 112.036667,2.62086617e-14 L112.036667,0 Z M70.1546925,105.236891 L33.9929811,105.236891 L35.9375463,97.0898615 L68.2101273,97.0898615 L70.1546925,105.236891 Z M93.6641261,93.5841262 L10.4844477,93.5841262 C6.88070013,93.5841262 3.90623552,90.8375319 3.54252979,87.3272943 L100.606044,87.3272943 C100.242338,90.8375319 97.2678737,93.5841262 93.6641261,93.5841262 L93.6641261,93.5841262 Z M84.584987,3.50663575 L112.036667,3.50663575 C113.39156,3.50663575 114.494381,4.6088756 114.494381,5.9641623 L114.494381,8.75037961 L82.1281729,8.75037961 L82.1281729,5.9641623 C82.1281729,4.6088756 83.2300933,3.50663575 84.584987,3.50663575 Z M114.494381,48.7164802 L82.1281729,48.7164802 L82.1281729,12.2561147 L114.494381,12.2561147 L114.494381,48.7164802 Z M112.036667,57.46686 L102.418271,57.46686 C102.411069,57.46686 102.402966,57.4650589 102.395764,57.4650589 C102.387662,57.4650589 102.38046,57.46686 102.373258,57.46686 L84.584987,57.46686 C83.2300933,57.46686 82.1272725,56.3637197 82.1272725,55.0084328 L82.1272725,52.2222155 L114.493481,52.2222155 L114.493481,55.0084328 C114.494381,56.3637197 113.39156,57.46686 112.036667,57.46686 L112.036667,57.46686 Z" id="Shape" fill="#000000" fill-rule="nonzero"></path>
                <path d="M86.86223,21.6582278 L96.8584034,21.6582278 C97.8110945,21.6582278 98.5822785,20.8218028 98.5822785,19.7906595 C98.5822785,18.7595165 97.8110945,17.9240506 96.8584034,17.9240506 L86.86223,17.9240506 C85.9104245,17.9240506 85.1392405,18.7595165 85.1392405,19.7906595 C85.1392405,20.8218028 85.9104245,21.6582278 86.86223,21.6582278 Z" id="Path" fill="#000000"></path>
                <path d="M86.1640785,30.6202532 L103.531214,30.6202532 C104.510823,30.6202532 105.303797,29.7847873 105.303797,28.7536441 C105.303797,27.7225009 104.510823,26.8860759 103.531214,26.8860759 L86.1640785,26.8860759 C85.1853793,26.8860759 84.3924051,27.7225009 84.3924051,28.7536441 C84.3924051,29.7847873 85.1853793,30.6202532 86.1640785,30.6202532 Z" id="Path" fill="#000000"></path>
                <path d="M86.9049026,38.0886076 L109.511912,38.0886076 C110.48729,38.0886076 111.278481,37.2521826 111.278481,36.2210395 C111.278481,35.1898963 110.48729,34.3544304 109.511912,34.3544304 L86.9049026,34.3544304 C85.9295241,34.3544304 85.1392405,35.1898963 85.1392405,36.2210395 C85.1392405,37.2521826 85.9295241,38.0886076 86.9049026,38.0886076 Z" id="Path" fill="#000000"></path>
                <path d="M11.4318503,37.3417722 L21.4280238,37.3417722 C22.3798294,37.3417722 23.1518987,36.5053471 23.1518987,35.4742039 C23.1518987,34.4430608 22.3798294,33.6075949 21.4280238,33.6075949 L11.4318503,33.6075949 C10.4800446,33.6075949 9.70886076,34.4430608 9.70886076,35.4742039 C9.70886076,36.5053471 10.4800446,37.3417722 11.4318503,37.3417722 Z" id="Path" fill="#000000"></path>
                <path d="M11.4805342,45.556962 L28.8476691,45.556962 C29.8263686,45.556962 30.6202532,44.7214962 30.6202532,43.690353 C30.6202532,42.6592098 29.8263686,41.8227848 28.8476691,41.8227848 L11.4805342,41.8227848 C10.5018347,41.8227848 9.70886076,42.6592098 9.70886076,43.690353 C9.70886076,44.7214962 10.5018347,45.556962 11.4805342,45.556962 Z" id="Path" fill="#000000"></path>
                <path d="M11.4745841,53.7721519 L34.0823777,53.7721519 C35.0577902,53.7721519 35.8481013,52.9357269 35.8481013,51.9045838 C35.8481013,50.8734406 35.0577902,50.0379747 34.0823777,50.0379747 L11.4745841,50.0379747 C10.4991716,50.0379747 9.70886076,50.8734406 9.70886076,51.9045838 C9.70886076,52.9357269 10.4991716,53.7721519 11.4745841,53.7721519 Z" id="Path" fill="#000000"></path>
                <path d="M45.6401546,53.0792515 L54.531329,80.9216026 C54.7642736,81.6521758 55.4466642,82.1500883 56.2204057,82.1518987 L56.2258866,82.1518987 C56.9968874,82.1518987 57.6801915,81.6603234 57.9177036,80.9333716 L61.8695398,68.85764 L74.0283327,66.253106 C74.7764959,66.0928686 75.3364763,65.4754574 75.4196056,64.7213464 C75.5036483,63.9681409 75.0898292,63.2457155 74.3946494,62.9288623 L48.0773943,50.9454707 C47.4397655,50.654871 46.6861213,50.7644117 46.1581138,51.2261123 C45.6310197,51.6878127 45.4273073,52.4138595 45.6401546,53.0792515 L45.6401546,53.0792515 Z M68.0631246,63.9246867 L60.1183446,65.627547 C59.4989862,65.75972 58.9974703,66.2087464 58.8019795,66.8062412 L56.2468973,74.6144115 L50.2424086,55.8105268 L68.0631246,63.9246867 Z" id="Shape" fill="#4A4A4A" fill-rule="nonzero"></path>
            </g>
        </g>
    </g>
</svg>
