<svg width="137px" height="102px" viewBox="0 0 137 102" version="1.1" xmlns="http://www.w3.org/2000/svg" xmlns:xlink="http://www.w3.org/1999/xlink">
    <g id="Landing-page" stroke="none" stroke-width="1" fill="none" fill-rule="evenodd">
        <g id="Generic---Desktop" transform="translate(-411.000000, -2836.000000)" fill="#000000">
            <g id="004-handshake" transform="translate(411.000000, 2836.000000)">
                <path d="M136.358617,28.1768008 L109.7882,1.49082536 C108.933826,0.632475435 107.548579,0.632475435 106.69367,1.49082536 L93.4084615,14.8336787 C92.9982656,15.2456544 92.7678817,15.8046299 92.7678817,16.3875232 C92.7678817,16.9704164 92.9982656,17.5293919 93.4084615,17.9413676 L94.7337714,19.2724281 L91.6882076,22.3306692 C89.7110796,24.3155698 86.6433069,24.8573461 84.0547649,23.6773165 C81.6278397,22.5709212 78.9298586,21.9864155 76.2519459,21.9864155 C73.0723259,21.9864155 69.9649518,22.7880617 67.2040901,24.3064327 C66.0527054,24.0215702 64.8710844,23.8756453 63.6776901,23.8756453 C61.9518171,23.8756453 60.2567154,24.174751 58.6394788,24.7651689 C56.0570911,25.7073651 53.2890049,25.123397 51.4140914,23.2408856 L45.9456159,17.7484136 L46.5968988,17.0943047 C47.0070947,16.682329 47.2374787,16.1233535 47.2374787,15.5404603 C47.2374787,14.957567 47.0070947,14.3985915 46.5968988,13.9866158 L33.3116903,0.643762441 C32.4567812,-0.21458748 31.0718015,-0.21458748 30.2171599,0.643762441 L0.640780525,30.3484744 C-0.213593508,31.2068244 -0.213593508,32.5980822 0.640780525,33.4561634 L13.9257214,46.7990167 C14.3361849,47.2112612 14.8924779,47.4426448 15.4731205,47.4426448 C16.053763,47.4426448 16.6097884,47.2112612 17.0205195,46.7990167 L17.8128156,46.0032828 L21.6696735,49.8768757 C22.6428518,50.8542767 23.2879805,52.074617 23.5349542,53.4056775 C24.8155788,60.3076816 28.1067784,66.5824506 33.0526756,71.5524955 L33.7791477,72.2821198 C32.3840002,73.7577615 31.6165887,75.6803148 31.6165887,77.7227254 C31.6165887,79.8352766 32.4359101,81.8215209 33.9231043,83.3154368 C35.4584623,84.8574568 37.4746566,85.628198 39.4916536,85.628198 C39.623034,85.628198 39.7538793,85.6247044 39.8852597,85.617986 C39.7787639,87.7729979 40.5429645,89.9634832 42.1778612,91.6060113 C43.6653229,93.0999272 45.6429861,93.9225349 47.7464105,93.9225349 C47.8050099,93.9225349 47.8633418,93.9195788 47.9219412,93.9182351 C47.8769882,96.0006877 48.6419915,98.0976521 50.220697,99.6834764 C51.7081587,101.177661 53.6858219,102 55.7895139,102 C57.8929384,102 59.8703339,101.177124 61.3580632,99.6834764 C61.4832894,99.5577069 61.6012909,99.4276376 61.7166167,99.2959559 C62.4912527,99.5671128 63.3105741,99.7114252 64.1387256,99.7114252 C66.1062208,99.7114252 67.9546442,98.9414902 69.3406941,97.5448575 C70.0784045,96.804215 70.638176,95.9329656 71.0026162,94.9840509 L71.2265783,95.2089848 C72.6605246,96.649153 74.5440006,97.3693715 76.4274766,97.3693715 C78.3109526,97.3693715 80.1944285,96.649153 81.6283748,95.2089848 C82.3904347,94.4436183 82.9630499,93.5398516 83.3258846,92.5543885 C84.6094525,93.4920162 86.1290235,93.9615019 87.6493972,93.9615019 C89.5328732,93.9615019 91.4174195,93.2415522 92.8527036,91.8019215 C94.2416969,90.4069013 95.0067002,88.5509951 95.0067002,86.5763065 C95.0067002,85.9797076 94.9355246,85.3946645 94.799863,84.8289705 C96.2011648,84.543033 97.4887464,83.852107 98.521862,82.813165 C99.9108553,81.4181448 100.675859,79.5630448 100.675859,77.5896999 C100.675859,76.0350493 100.199036,74.5551078 99.3184393,73.3140746 L101.073746,71.5511518 C106.077172,66.5235969 109.382553,60.1700876 110.632942,53.17725 C110.842455,52.0063575 111.419886,50.9187739 112.303426,50.0311315 L118.831775,43.474456 L119.979414,44.6270743 C120.406734,45.0562493 120.966774,45.2707024 121.526813,45.2707024 C122.086584,45.2707024 122.646891,45.0562493 123.074212,44.6270743 L136.35942,31.284221 C136.769616,30.8722453 137,30.3132697 137,29.7303765 C137,29.1474833 136.768813,28.5890452 136.358617,28.1768008 Z M15.4731205,42.1377521 L5.28217482,31.9025877 L31.7640238,5.30583333 L41.955237,15.5409977 L15.4731205,42.1377521 Z M41.9656725,80.2082853 C40.6018314,81.5777753 38.3822785,81.5783128 37.0173671,80.2082853 C36.3564514,79.5442331 35.9925464,78.6619655 35.9925464,77.7232629 C35.9925464,76.7848289 36.356719,75.9022926 37.0176347,75.2385091 C37.699689,74.5534954 38.5952699,74.2108541 39.491386,74.2108541 C40.3872345,74.2108541 41.2836182,74.5534954 41.9654049,75.2385091 C43.3295135,76.6085367 43.3295135,78.837989 41.9656725,80.2082853 Z M50.2198943,88.4983224 C49.5595137,89.1623745 48.6810577,89.5275898 47.7458754,89.5275898 C46.8114958,89.5275898 45.9327722,89.1618371 45.2721241,88.4983224 C43.9077479,87.1282948 43.9077479,84.8988424 45.2721241,83.5285462 C45.9541784,82.8435324 46.8497593,82.5008912 47.746143,82.5008912 C48.6417239,82.5008912 49.5381075,82.8435324 50.2198943,83.5285462 C51.584538,84.8985737 51.584538,87.1282948 50.2198943,88.4983224 Z M58.2627301,96.5757875 C57.6018143,97.2395709 56.7233584,97.6050549 55.7889787,97.6050549 C54.8543316,97.6050549 53.975608,97.2393022 53.3149599,96.5757875 C51.9505837,95.20576 51.9505837,92.9763076 53.3149599,91.6060113 C53.9970142,90.9209975 54.8925951,90.5783563 55.7889787,90.5783563 C56.6845597,90.5783563 57.5809433,90.9209975 58.2627301,91.6060113 C59.6271063,92.9763076 59.6271063,95.20576 58.2627301,96.5757875 Z M95.4259937,79.706551 C94.8635464,80.2719763 94.1156681,80.5834439 93.3204286,80.5834439 C92.5251891,80.5834439 91.7773108,80.2719763 91.2137932,79.7052073 L69.9868931,58.3910405 C69.1317163,57.5329593 67.7467367,57.533228 66.8923627,58.391578 C66.0382562,59.2496591 66.0385238,60.6411857 66.8928978,61.4992669 L89.757638,84.4607991 C90.3203529,85.0256869 90.6299397,85.777079 90.6299397,86.5763065 C90.6299397,87.3771464 90.3200853,88.1293448 89.7584408,88.6934263 C88.5952826,89.8605565 86.7037793,89.8608252 85.5424942,88.6942325 L81.6851012,84.8201021 C81.663695,84.7977969 81.642824,84.7752229 81.6206151,84.7531863 C81.6141932,84.7467366 81.6069686,84.7410931 81.6002792,84.7346434 L63.8687402,66.9261668 C63.013831,66.0680856 61.6288514,66.0680856 60.7742098,66.9261668 C59.9195681,67.784248 59.9195681,69.1757746 60.7742098,70.0338557 L78.5627427,87.8993048 C79.1064596,88.4590866 79.4058785,89.1997292 79.4058785,89.9855198 C79.4058785,90.7847473 79.0957565,91.5361394 78.5333092,92.1010271 C77.3725593,93.2676198 75.4826614,93.2676198 74.3208412,92.1010271 L55.032538,72.7287628 C54.1776288,71.8704128 52.7926491,71.8704128 51.9380075,72.7287628 C51.0833659,73.5868439 51.0833659,74.9783705 51.9380075,75.8364517 L66.2357282,90.1964793 C66.2397419,90.2005103 66.2429528,90.2050789 66.247234,90.2088412 C66.8094137,90.7723853 67.118733,91.5224337 67.118733,92.320855 C67.118733,93.1198138 66.8088786,93.8712059 66.2440231,94.4385123 C65.6823785,95.0039375 64.9347678,95.3154052 64.1381904,95.3154052 C63.9458024,95.3154052 63.7576957,95.2955185 63.5736025,95.2605826 C63.9276072,92.8653187 63.1893617,90.3372981 61.3575281,88.4972474 C59.8700664,87.0036003 57.8924032,86.1807238 55.7889787,86.1807238 C55.7303793,86.1807238 55.6720475,86.1836799 55.6134481,86.1850236 C55.6584011,84.1025711 54.8936654,82.0056066 53.3146923,80.4197823 C51.826963,78.9261352 49.8495674,78.1032587 47.7458754,78.1032587 C47.6142274,78.1032587 47.4833821,78.1064836 47.3528045,78.1129333 C47.4579623,75.9592651 46.6937618,73.7706609 45.0596678,72.1292078 C43.0704988,70.1316765 40.2743169,69.4300009 37.7162788,70.0204188 L36.147206,68.4445378 C31.8285099,64.1052216 28.9552658,58.6261864 27.8370606,52.5997315 C27.4273999,50.3925844 26.3648508,48.3759727 24.7644715,46.7683806 L20.907346,42.8945189 L42.851353,20.8552963 L48.3200961,26.3477684 C50.4221826,28.4589759 53.2841885,29.5887515 56.2154968,29.5887515 C57.5282306,29.5887515 58.8556812,29.3619364 60.1344326,28.8951381 C60.7546766,28.6685917 61.3960592,28.5060051 62.0460042,28.4028096 L48.4980349,42.0098327 C46.8403941,43.6743973 45.9274207,45.8877254 45.9274207,48.2421411 C45.9274207,50.596288 46.8403941,52.8096161 48.4977673,54.4741807 C50.208656,56.192493 52.4552343,57.0513804 54.7028829,57.0511116 C56.9499963,57.0511116 59.1973773,56.1916868 60.9085335,54.4741807 L67.713022,47.6401674 L69.5547559,49.4912364 C69.5552911,49.4917738 69.5555586,49.4920426 69.5560938,49.4925801 L69.6326209,49.5694392 L69.7062046,49.6433422 C69.7064722,49.6436109 69.7070073,49.6441484 69.7075425,49.6444172 L69.7088804,49.6457609 C69.730019,49.6667224 69.7506224,49.6866091 69.7712259,49.7064957 L95.4267964,75.4733864 C95.9895113,76.0382741 96.2990981,76.7896662 96.2990981,77.5888937 C96.2990981,78.3894649 95.9895113,79.140857 95.4259937,79.706551 Z M109.208093,46.9237113 C107.68986,48.4488008 106.692867,50.3428678 106.325216,52.4008652 C105.233501,58.5065979 102.347146,64.05443 97.9786802,68.4440004 L96.2972251,70.1330202 L82.4551884,56.2309225 C82.7559452,56.2532278 83.0580398,56.2680084 83.3622751,56.2680084 C84.7638446,56.2680084 86.1980584,56.0213067 87.6258504,55.4346512 C88.7443231,54.9751088 89.2800127,53.6918837 88.8224557,52.5688266 C88.3648987,51.4457695 87.0882878,50.9074869 85.9690123,51.3670292 C80.3375823,53.6811342 73.5860742,47.3037071 72.8344498,46.5687081 C72.8218737,46.5563461 72.8092975,46.5442529 72.7964538,46.5324284 L72.7188564,46.4544943 C72.7185889,46.4542256 72.7183213,46.4542256 72.7180537,46.4539568 L72.6503567,46.3862348 C72.6500891,46.3859661 72.6495539,46.3854286 72.6490188,46.3851599 L70.8070173,44.5338222 L72.895725,42.4357828 C73.7506342,41.5774328 73.7506342,40.186175 72.8959925,39.3278251 C72.0413509,38.4700126 70.6561037,38.4697439 69.8017297,39.3278251 L66.1707069,42.9746029 C66.1693691,42.9759466 66.1677636,42.9772903 66.1664257,42.978634 C66.1650878,42.9799777 66.1637499,42.9815901 66.162412,42.9829338 L57.8140031,51.3675667 C56.098298,53.0904475 53.3074677,53.0899101 51.5922978,51.3675667 C50.7614705,50.5331345 50.3039135,49.4235143 50.3039135,48.243216 C50.3039135,47.0629177 50.7614705,45.9532975 51.5925654,45.1188653 L66.0021333,30.6462364 C66.8037946,29.8413654 67.6948267,29.1332402 68.6524856,28.5401349 C70.9276946,27.1276467 73.5555704,26.3810919 76.2519459,26.3810919 C78.3104174,26.3810919 80.3830705,26.8298847 82.2464782,27.6793663 C86.4854363,29.6110567 91.5236476,28.7110524 94.782738,25.4386269 L97.8285694,22.3801171 L115.737245,40.3664984 L109.208093,46.9237113 Z M121.52601,39.9660784 L98.0498558,16.3880606 L108.241069,6.15289625 L131.717223,29.730914 L121.52601,39.9660784 Z" id="Shape" fill-rule="nonzero"></path>
                <ellipse id="Oval" cx="123.597826" cy="31.5" rx="2.23369565" ry="2.25"></ellipse>
                <ellipse id="Oval" cx="14.1467391" cy="33.75" rx="2.23369565" ry="2.25"></ellipse>
            </g>
        </g>
    </g>
</svg>
