<svg width="66px" height="66px" viewBox="0 0 66 66" version="1.1" xmlns="http://www.w3.org/2000/svg" xmlns:xlink="http://www.w3.org/1999/xlink">
    <g id="Landing-page" stroke="none" stroke-width="1" fill="none" fill-rule="evenodd">
        <g id="Generic---Mobile" transform="translate(-127.000000, -1889.000000)">
            <rect x="0" y="0" width="320" height="7091"></rect>
            <g id="Group-5" transform="translate(16.000000, 1882.000000)" fill="#E25A3F">
                <g id="Logo" transform="translate(104.000000, 0.000000)">
                    <path d="M33.8777332,21.7388735 L37.9766097,25.8377578 C39.0928758,26.954026 40.9071242,26.9535203 42.0228845,25.8377578 L54.2143107,13.6463082 C55.1889572,14.0210951 56.0164204,14.542054 56.6906309,15.2162658 C57.3648415,15.8904777 57.8863052,16.7184483 58.2605856,17.6925908 L46.0691594,29.8840405 C42.7223843,33.230822 37.2776157,33.2313278 33.9303348,29.8840405 L29.8314584,25.7851561 C30.2057388,24.8110136 30.7272025,23.983043 31.401413,23.3088312 C32.0756236,22.6346193 32.9035926,22.1131546 33.8777332,21.7388735 Z M25.7851835,25.8908653 C24.8110428,25.5165841 23.9830738,24.9951194 23.3088633,24.3209076 C22.6346527,23.6466958 22.113189,22.8187252 21.7389086,21.8445826 L33.9303348,9.65313297 C37.2776157,6.30584565 42.7223843,6.30635143 46.0691594,9.65313297 L50.1680359,13.7520173 C49.7937554,14.7261599 49.2727975,15.5536247 48.5980812,16.2283423 C47.9238707,16.9025541 47.0959017,17.4240188 46.121761,17.7983 L42.0228845,13.6994156 C40.9071242,12.5836532 39.0928758,12.5831474 37.9766097,13.6994156 L25.7851835,25.8908653 Z M46.1222668,58.2611265 L42.0233903,54.1622422 C40.9071242,53.045974 39.0928758,53.0464797 37.9771155,54.1622422 L25.7856893,66.3536918 C24.8110428,65.9789049 23.9835796,65.457946 23.3093691,64.7837342 C22.6351585,64.1095223 22.1136948,63.2815517 21.7394144,62.3074092 L33.9308406,50.1159595 C37.2776157,46.769178 42.7223843,46.7686722 46.0696652,50.1159595 L50.1685416,54.2148439 C49.7942612,55.1889864 49.2727975,56.016957 48.598587,56.6911688 C47.9243764,57.3653807 47.0964074,57.8868454 46.1222668,58.2611265 Z M66.3007867,37.9768587 L54.1093605,25.785409 C54.4836409,24.8112665 55.0051046,23.9832959 55.6793151,23.309084 C56.3535257,22.6348722 57.1814947,22.1134075 58.1556353,21.7391264 L70.3470615,33.930576 C73.6938366,37.2773576 73.6938366,42.7226424 70.3470615,46.069424 L66.2481851,50.1683083 C65.2740444,49.7940272 64.4460754,49.2725625 63.7718649,48.5983506 C63.0976543,47.9241388 62.5761906,47.0961682 62.2019102,46.1220257 L66.3007867,42.0231413 C67.416547,40.9073789 67.416547,39.0926211 66.3007867,37.9768587 Z M54.2148165,54.1091347 C55.1889572,54.4834159 56.0169262,55.0048806 56.6911367,55.6790924 C57.3653473,56.3533042 57.886811,57.1812748 58.2610914,58.1554174 L46.0696652,70.346867 C42.7223843,73.6941544 37.2776157,73.6936486 33.9308406,70.346867 L29.8319641,66.2479827 C30.2062446,65.2738401 30.7272025,64.4463753 31.4019188,63.7716577 C32.0761293,63.0974459 32.9040983,62.5759812 33.878239,62.2017 L37.9771155,66.3005844 C39.0928758,67.4163468 40.9071242,67.4168526 42.0233903,66.3005844 L54.2148165,54.1091347 Z M25.838038,37.9768587 L13.6466118,25.785409 C14.0208922,24.8112665 14.5423559,23.9832959 15.2165664,23.309084 C15.890777,22.6348722 16.718746,22.1134075 17.6928866,21.7391264 L29.8843128,33.930576 C33.2310879,37.2773576 33.2310879,42.7226424 29.8843128,46.069424 L25.7854364,50.1683083 C24.8112957,49.7940272 23.9833267,49.2725625 23.3091162,48.5983506 C22.6349056,47.9241388 22.1134419,47.0961682 21.7391615,46.1220257 L25.838038,42.0231413 C26.9537982,40.9073789 26.9537982,39.0926211 25.838038,37.9768587 Z M66.3536411,54.2148439 C65.9793607,55.1889864 65.457897,56.016957 64.7836865,56.6911688 C64.1094759,57.3653807 63.2815069,57.8868454 62.3073663,58.2611265 L50.1159401,46.0696769 C46.7686592,42.7223895 46.769165,37.2776105 50.1159401,33.9308289 L54.2148165,29.8319446 C55.1889572,30.2062257 56.0164204,30.7271846 56.6911367,31.4019022 C57.3653473,32.0761141 57.886811,32.9040847 58.2610914,33.8782272 L54.1622149,37.9771116 C53.0464546,39.092874 53.0459489,40.907126 54.1622149,42.0233942 L66.3536411,54.2148439 Z M13.6992133,42.0231413 L25.8906395,54.214591 C25.5163591,55.1887335 24.9948954,56.0167041 24.3206849,56.690916 C23.6464743,57.3651278 22.8185053,57.8865925 21.8443647,58.2608736 L9.65293847,46.069424 C6.30616337,42.7226424 6.30616337,37.2773576 9.65293847,33.930576 L13.7518149,29.8316917 C14.7259556,30.2059728 15.5539246,30.7274375 16.2281351,31.4016494 C16.9023457,32.0758612 17.4238094,32.9038318 17.7980898,33.8779743 L13.6992133,37.9768587 C12.583453,39.0926211 12.583453,40.9073789 13.6992133,42.0231413 Z" id="Shape"></path>
                </g>
            </g>
        </g>
    </g>
</svg>
