<svg width="170px" height="138px" viewBox="0 0 170 138" version="1.1" xmlns="http://www.w3.org/2000/svg" xmlns:xlink="http://www.w3.org/1999/xlink">
    <g id="Landing-page" stroke="none" stroke-width="1" fill="none" fill-rule="evenodd">
        <g id="Generic---Desktop" transform="translate(-425.000000, -32.000000)">
            <g id="Group-2">
                <g id="Group" transform="translate(425.000000, 22.000000)">
                    <g id="Group-9">
                        <g id="Logo" transform="translate(32.000000, 0.000000)" fill="#E25A3F">
                            <path d="M47.4288265,30.4344229 L53.1672535,36.1728609 C54.7300261,37.7356365 57.2699739,37.7349284 58.8320384,36.1728609 L75.900035,19.1048314 C77.2645401,19.6295331 78.4229886,20.3588756 79.3668833,21.3027722 C80.3107781,22.2466688 81.0408272,23.4058276 81.5648198,24.7696272 L64.4968232,41.8376567 C59.811338,46.5231508 52.188662,46.5238589 47.5024687,41.8376567 L41.7640417,36.0992186 C42.2880343,34.735419 43.0180834,33.5762602 43.9619782,32.6323636 C44.905873,31.688467 46.0650296,30.9584165 47.4288265,30.4344229 Z M36.0992569,36.2472114 C34.7354599,35.7232178 33.5763033,34.9931672 32.6324086,34.0492706 C31.6885138,33.1053741 30.9584647,31.9462152 30.4344721,30.5824157 L47.5024687,13.5143862 C52.188662,8.8281839 59.811338,8.828892 64.4968232,13.5143862 L70.2352502,19.2528242 C69.7112576,20.6166238 68.9819166,21.7750745 68.0373137,22.7196792 C67.0934189,23.6635758 65.9342623,24.3936263 64.5704654,24.9176199 L58.8320384,19.1791819 C57.2699739,17.6171145 54.7300261,17.6164064 53.1672535,19.1791819 L36.0992569,36.2472114 Z M64.5711735,81.5655771 L58.8327465,75.8271391 C57.2699739,74.2643635 54.7300261,74.2650716 53.1679616,75.8271391 L36.099965,92.8951686 C34.7354599,92.3704669 33.5770114,91.6411244 32.6331167,90.6972278 C31.6892219,89.7533312 30.9591728,88.5941724 30.4351802,87.2303728 L47.5031768,70.1623433 C52.188662,65.4768492 59.811338,65.4761411 64.4975313,70.1623433 L70.2359583,75.9007814 C69.7119657,77.264581 68.9819166,78.4237398 68.0380218,79.3676364 C67.094127,80.311533 65.9349704,81.0415835 64.5711735,81.5655771 Z M92.8211013,53.1676021 L75.7531047,36.0995726 C76.2770973,34.7357731 77.0071464,33.5766142 77.9510412,32.6327177 C78.8949359,31.6888211 80.0540925,30.9587705 81.4178895,30.4347769 L98.4858861,47.5028064 C103.171371,52.1883006 103.171371,59.8116994 98.4858861,64.4971936 L92.7474591,70.2356316 C91.3836622,69.711638 90.2245056,68.9815875 89.2806108,68.0376909 C88.336716,67.0937943 87.6066669,65.9346355 87.0826743,64.5708359 L92.8211013,58.8323979 C94.3831657,57.2703304 94.3831657,54.7296696 92.8211013,53.1676021 Z M75.9007431,75.7527886 C77.2645401,76.2767822 78.4236967,77.0068328 79.3675914,77.9507294 C80.3114862,78.8946259 81.0415353,80.0537848 81.5655279,81.4175843 L64.4975313,98.4856138 C59.811338,103.171816 52.188662,103.171108 47.5031768,98.4856138 L41.7647498,92.7471758 C42.2887424,91.3833762 43.0180834,90.2249255 43.9626863,89.2803208 C44.9065811,88.3364242 46.0657377,87.6063737 47.4295346,87.0823801 L53.1679616,92.8208181 C54.7300261,94.3828855 57.2699739,94.3835936 58.8327465,92.8208181 L75.9007431,75.7527886 Z M36.1732531,53.1676021 L19.1052565,36.0995726 C19.6292491,34.7357731 20.3592982,33.5766142 21.303193,32.6327177 C22.2470878,31.6888211 23.4062443,30.9587705 24.7700413,30.4347769 L41.838038,47.5028064 C46.5235231,52.1883006 46.5235231,59.8116994 41.838038,64.4971936 L36.0996109,70.2356316 C34.735814,69.711638 33.5766574,68.9815875 32.6327626,68.0376909 C31.6888679,67.0937943 30.9588187,65.9346355 30.4348261,64.5708359 L36.1732531,58.8323979 C37.7353175,57.2703304 37.7353175,54.7296696 36.1732531,53.1676021 Z M92.8950976,75.9007814 C92.371105,77.264581 91.6410558,78.4237398 90.6971611,79.3676364 C89.7532663,80.311533 88.5941097,81.0415835 87.2303128,81.5655771 L70.1623161,64.4975476 C65.4761229,59.8113454 65.476831,52.1886546 70.1623161,47.5031605 L75.9007431,41.7647224 C77.2645401,42.288716 78.4229886,43.0180585 79.3675914,43.9626631 C80.3114862,44.9065597 81.0415353,46.0657186 81.5655279,47.4295181 L75.8271009,53.1679562 C74.2650365,54.7300236 74.2643284,57.2699764 75.8271009,58.8327519 L92.8950976,75.9007814 Z M19.1788987,58.8323979 L36.2468953,75.9004274 C35.7229027,77.2642269 34.9928536,78.4233858 34.0489588,79.3672823 C33.1050641,80.3111789 31.9459075,81.0412295 30.5821105,81.5652231 L13.5141139,64.4971936 C8.82862871,59.8116994 8.82862871,52.1883006 13.5141139,47.5028064 L19.2525409,41.7643684 C20.6163378,42.288362 21.7754944,43.0184125 22.7193892,43.9623091 C23.663284,44.9062057 24.3933331,46.0653645 24.9173257,47.4291641 L19.1788987,53.1676021 C17.6168343,54.7296696 17.6168343,57.2703304 19.1788987,58.8323979 Z" id="Shape"></path>
                        </g>
                        <path d="M8.26464844,147 L6.10644531,147 L6.10644531,130.356445 L0.228515625,130.356445 L0.228515625,128.439453 L14.1425781,128.439453 L14.1425781,130.356445 L8.26464844,130.356445 L8.26464844,147 Z M35.9023438,147 L33.7441406,147 L33.7441406,138.265625 L23.96875,138.265625 L23.96875,147 L21.8105469,147 L21.8105469,128.439453 L23.96875,128.439453 L23.96875,136.335938 L33.7441406,136.335938 L33.7441406,128.439453 L35.9023438,128.439453 L35.9023438,147 Z M56.2148438,147 L45.8681641,147 L45.8681641,128.439453 L56.2148438,128.439453 L56.2148438,130.356445 L48.0263672,130.356445 L48.0263672,136.335938 L55.7197266,136.335938 L55.7197266,138.240234 L48.0263672,138.240234 L48.0263672,145.070312 L56.2148438,145.070312 L56.2148438,147 Z M84.9951172,137.275391 L91.3046875,137.275391 L91.3046875,146.301758 C90.3229118,146.61491 89.3242238,146.851887 88.3085938,147.012695 C87.2929637,147.173503 86.1165431,147.253906 84.7792969,147.253906 C81.969387,147.253906 79.7815833,146.41814 78.2158203,144.746582 C76.6500573,143.075024 75.8671875,140.732762 75.8671875,137.719727 C75.8671875,135.790029 76.2543907,134.099454 77.0288086,132.647949 C77.8032265,131.196445 78.918287,130.087732 80.3740234,129.321777 C81.8297599,128.555823 83.5351465,128.172852 85.4902344,128.172852 C87.470713,128.172852 89.3157467,128.53678 91.0253906,129.264648 L90.1875,131.168945 C88.5117104,130.458004 86.8994218,130.102539 85.3505859,130.102539 C83.090809,130.102539 81.3261782,130.775384 80.0566406,132.121094 C78.787103,133.466804 78.1523438,135.332996 78.1523438,137.719727 C78.1523438,140.224947 78.7638285,142.124994 79.9868164,143.419922 C81.2098043,144.71485 83.006173,145.362305 85.3759766,145.362305 C86.6624413,145.362305 87.9192647,145.214194 89.1464844,144.917969 L89.1464844,139.205078 L84.9951172,139.205078 L84.9951172,137.275391 Z M114.651367,128.439453 L114.651367,140.449219 C114.651367,142.565115 114.012376,144.228184 112.734375,145.438477 C111.456374,146.648769 109.700206,147.253906 107.46582,147.253906 C105.231434,147.253906 103.502773,146.644537 102.279785,145.425781 C101.056797,144.207025 100.445312,142.531261 100.445312,140.398438 L100.445312,128.439453 L102.603516,128.439453 L102.603516,140.550781 C102.603516,142.099617 103.026688,143.288733 103.873047,144.118164 C104.719405,144.947595 105.963533,145.362305 107.605469,145.362305 C109.171232,145.362305 110.377274,144.945479 111.223633,144.111816 C112.069991,143.278153 112.493164,142.08269 112.493164,140.525391 L112.493164,128.439453 L114.651367,128.439453 Z M124.439453,147 L124.439453,128.439453 L126.597656,128.439453 L126.597656,147 L124.439453,147 Z M136.563477,147 L136.563477,128.439453 L138.72168,128.439453 L138.72168,145.044922 L146.910156,145.044922 L146.910156,147 L136.563477,147 Z M169.749023,137.541992 C169.749023,140.60581 168.917489,142.948071 167.254395,144.568848 C165.5913,146.189624 163.198258,147 160.075195,147 L154.933594,147 L154.933594,128.439453 L160.621094,128.439453 C163.507176,128.439453 165.749992,129.23925 167.349609,130.838867 C168.949227,132.438485 169.749023,134.672837 169.749023,137.541992 Z M167.463867,137.618164 C167.463867,135.197579 166.856614,133.373704 165.64209,132.146484 C164.427566,130.919265 162.622733,130.305664 160.227539,130.305664 L157.091797,130.305664 L157.091797,145.133789 L159.719727,145.133789 C162.292656,145.133789 164.226556,144.501146 165.521484,143.23584 C166.816413,141.970534 167.463867,140.097994 167.463867,137.618164 Z" id="THE-GUILD" fill="#333333"></path>
                    </g>
                </g>
            </g>
        </g>
    </g>
</svg>
