<svg width="262px" height="66px" viewBox="0 0 262 66" version="1.1" xmlns="http://www.w3.org/2000/svg" xmlns:xlink="http://www.w3.org/1999/xlink">
    <g id="Landing-page" stroke="none" stroke-width="1" fill="none" fill-rule="evenodd">
        <g id="Generic---Desktop" transform="translate(-334.000000, -115.000000)">
            <g id="Group-2">
                <g id="Group" transform="translate(328.000000, 109.000000)">
                    <g id="Group-9">
                        <g id="Logo" fill="#E25A3F">
                            <path d="M33.0307899,21.1954016 L37.0271944,25.1918139 C38.1155539,26.2801754 39.8844461,26.2796822 40.9723124,25.1918139 L52.858953,13.3051505 C53.8092333,13.6705677 54.6160099,14.1785026 55.2733652,14.8358592 C55.9307205,15.4932157 56.4391475,16.3004871 56.804071,17.2502761 L44.9174304,29.1369395 C41.6543247,32.4000515 36.3456753,32.4005446 33.0820764,29.1369395 L29.0856719,25.1405272 C29.4505953,24.1907382 29.9590224,23.3834669 30.6163777,22.7261104 C31.273733,22.0687538 32.0810027,21.5603258 33.0307899,21.1954016 Z M25.1405539,25.2435936 C24.1907667,24.8786695 23.383497,24.3702415 22.7261417,23.7128849 C22.0687864,23.0555284 21.5603593,22.248257 21.1954359,21.298468 L33.0820764,9.41180465 C36.3456753,6.1481995 41.6543247,6.14869264 44.9174304,9.41180465 L48.913835,13.4082169 C48.5489115,14.3580059 48.0409776,15.164784 47.3831292,15.8226337 C46.7257739,16.4799903 45.9185041,16.9884183 44.968717,17.3533425 L40.9723124,13.3569302 C39.8844461,12.2690619 38.1155539,12.2685687 37.0271944,13.3569302 L25.1405539,25.2435936 Z M44.9692101,56.8045984 L40.9728056,52.8081861 C39.8844461,51.7198246 38.1155539,51.7203178 37.0276876,52.8081861 L25.141047,64.6948495 C24.1907667,64.3294323 23.3839901,63.8214974 22.7266348,63.1641408 C22.0692795,62.5067843 21.5608525,61.6995129 21.195929,60.7497239 L33.0825696,48.8630605 C36.3456753,45.5999485 41.6543247,45.5994554 44.9179236,48.8630605 L48.9143281,52.8594728 C48.5494047,53.8092618 48.0409776,54.6165331 47.3836223,55.2738896 C46.726267,55.9312462 45.9189973,56.4396742 44.9692101,56.8045984 Z M64.643267,37.0274372 L52.7566265,25.1407738 C53.1215499,24.1909848 53.629977,23.3837135 54.2873322,22.7263569 C54.9446875,22.0690004 55.7519573,21.5605723 56.7017445,21.1956482 L68.588385,33.0823116 C71.8514907,36.3454236 71.8514907,41.6545764 68.588385,44.9176884 L64.5919805,48.9141006 C63.6421933,48.5491765 62.8349235,48.0407484 62.1775682,47.3833919 C61.520213,46.7260353 61.0117859,45.918764 60.6468625,44.968975 L64.643267,40.9725628 C65.7311333,39.8846944 65.7311333,38.1153056 64.643267,37.0274372 Z M52.8594461,52.7564064 C53.8092333,53.1213305 54.616503,53.6297585 55.2738583,54.2871151 C55.9312136,54.9444716 56.4396407,55.751743 56.8045641,56.701532 L44.9179236,68.5881954 C41.6543247,71.8518005 36.3456753,71.8513074 33.0825696,68.5881954 L29.086165,64.5917831 C29.4510885,63.6419941 29.9590224,62.835216 30.6168708,62.1773663 C31.2742261,61.5200097 32.0814959,61.0115817 33.031283,60.6466575 L37.0276876,64.6430698 C38.1155539,65.7309381 39.8844461,65.7314313 40.9728056,64.6430698 L52.8594461,52.7564064 Z M25.192087,37.0274372 L13.3054465,25.1407738 C13.6703699,24.1909848 14.178797,23.3837135 14.8361523,22.7263569 C15.4935075,22.0690004 16.3007773,21.5605723 17.2505645,21.1956482 L29.137205,33.0823116 C32.4003107,36.3454236 32.4003107,41.6545764 29.137205,44.9176884 L25.1408005,48.9141006 C24.1910133,48.5491765 23.3837435,48.0407484 22.7263883,47.3833919 C22.069033,46.7260353 21.5606059,45.918764 21.1956825,44.968975 L25.192087,40.9725628 C26.2799533,39.8846944 26.2799533,38.1153056 25.192087,37.0274372 Z M64.6948001,52.8594728 C64.3298767,53.8092618 63.8214496,54.6165331 63.1640943,55.2738896 C62.506739,55.9312462 61.6994693,56.4396742 60.7496821,56.8045984 L48.8630416,44.917935 C45.5994427,41.6543298 45.5999358,36.3456702 48.8630416,33.0825582 L52.8594461,29.086146 C53.8092333,29.4510701 54.6160099,29.959005 55.2738583,30.6168547 C55.9312136,31.2742112 56.4396407,32.0814826 56.8045641,33.0312716 L52.8081596,37.0276838 C51.7202933,38.1155522 51.7198001,39.8844478 52.8081596,40.9728094 L64.6948001,52.8594728 Z M13.356733,40.9725628 L25.2433735,52.8592262 C24.8784501,53.8090152 24.370023,54.6162865 23.7126678,55.2736431 C23.0553125,55.9309996 22.2480427,56.4394277 21.2982555,56.8043518 L9.41161501,44.9176884 C6.14850928,41.6545764 6.14850928,36.3454236 9.41161501,33.0823116 L13.4080195,29.0858994 C14.3578067,29.4508235 15.1650765,29.9592516 15.8224318,30.6166081 C16.479787,31.2739647 16.9882141,32.081236 17.3531375,33.031025 L13.356733,37.0274372 C12.2688667,38.1153056 12.2688667,39.8846944 13.356733,40.9725628 Z" id="Shape"></path>
                        </g>
                        <path d="M106.264648,50 L104.106445,50 L104.106445,33.3564453 L98.2285156,33.3564453 L98.2285156,31.4394531 L112.142578,31.4394531 L112.142578,33.3564453 L106.264648,33.3564453 L106.264648,50 Z M133.902344,50 L131.744141,50 L131.744141,41.265625 L121.96875,41.265625 L121.96875,50 L119.810547,50 L119.810547,31.4394531 L121.96875,31.4394531 L121.96875,39.3359375 L131.744141,39.3359375 L131.744141,31.4394531 L133.902344,31.4394531 L133.902344,50 Z M154.214844,50 L143.868164,50 L143.868164,31.4394531 L154.214844,31.4394531 L154.214844,33.3564453 L146.026367,33.3564453 L146.026367,39.3359375 L153.719727,39.3359375 L153.719727,41.2402344 L146.026367,41.2402344 L146.026367,48.0703125 L154.214844,48.0703125 L154.214844,50 Z M182.995117,40.2753906 L189.304688,40.2753906 L189.304688,49.3017578 C188.322912,49.6149104 187.324224,49.8518872 186.308594,50.0126953 C185.292964,50.1735034 184.116543,50.2539062 182.779297,50.2539062 C179.969387,50.2539062 177.781583,49.4181399 176.21582,47.746582 C174.650057,46.0750242 173.867188,43.7327625 173.867188,40.7197266 C173.867188,38.7900294 174.254391,37.0994539 175.028809,35.6479492 C175.803227,34.1964446 176.918287,33.0877317 178.374023,32.3217773 C179.82976,31.555823 181.535146,31.1728516 183.490234,31.1728516 C185.470713,31.1728516 187.315747,31.5367802 189.025391,32.2646484 L188.1875,34.1689453 C186.51171,33.4580043 184.899422,33.1025391 183.350586,33.1025391 C181.090809,33.1025391 179.326178,33.7753839 178.056641,35.1210938 C176.787103,36.4668036 176.152344,38.3329959 176.152344,40.7197266 C176.152344,43.2249474 176.763829,45.1249935 177.986816,46.4199219 C179.209804,47.7148502 181.006173,48.3623047 183.375977,48.3623047 C184.662441,48.3623047 185.919265,48.2141942 187.146484,47.9179688 L187.146484,42.2050781 L182.995117,42.2050781 L182.995117,40.2753906 Z M212.651367,31.4394531 L212.651367,43.4492188 C212.651367,45.5651147 212.012376,47.2281841 210.734375,48.4384766 C209.456374,49.6487691 207.700206,50.2539062 205.46582,50.2539062 C203.231434,50.2539062 201.502773,49.6445373 200.279785,48.4257812 C199.056797,47.2070252 198.445312,45.5312607 198.445312,43.3984375 L198.445312,31.4394531 L200.603516,31.4394531 L200.603516,43.5507812 C200.603516,45.0996171 201.026688,46.2887328 201.873047,47.1181641 C202.719405,47.9475953 203.963533,48.3623047 205.605469,48.3623047 C207.171232,48.3623047 208.377274,47.9454794 209.223633,47.1118164 C210.069991,46.2781534 210.493164,45.0826901 210.493164,43.5253906 L210.493164,31.4394531 L212.651367,31.4394531 Z M222.439453,50 L222.439453,31.4394531 L224.597656,31.4394531 L224.597656,50 L222.439453,50 Z M234.563477,50 L234.563477,31.4394531 L236.72168,31.4394531 L236.72168,48.0449219 L244.910156,48.0449219 L244.910156,50 L234.563477,50 Z M267.749023,40.5419922 C267.749023,43.6058096 266.917489,45.9480713 265.254395,47.5688477 C263.5913,49.189624 261.198258,50 258.075195,50 L252.933594,50 L252.933594,31.4394531 L258.621094,31.4394531 C261.507176,31.4394531 263.749992,32.2392498 265.349609,33.8388672 C266.949227,35.4384846 267.749023,37.6728372 267.749023,40.5419922 Z M265.463867,40.6181641 C265.463867,38.197579 264.856614,36.3737041 263.64209,35.1464844 C262.427566,33.9192647 260.622733,33.3056641 258.227539,33.3056641 L255.091797,33.3056641 L255.091797,48.1337891 L257.719727,48.1337891 C260.292656,48.1337891 262.226556,47.5011456 263.521484,46.2358398 C264.816413,44.970534 265.463867,43.0979942 265.463867,40.6181641 Z" id="THEGUILD" fill="#333333" fill-rule="nonzero"></path>
                    </g>
                </g>
            </g>
        </g>
    </g>
</svg>
