<svg width="368px" height="234px" viewBox="0 0 368 234" version="1.1" xmlns="http://www.w3.org/2000/svg" xmlns:xlink="http://www.w3.org/1999/xlink">
    <g id="Landing-page" stroke="none" stroke-width="1" fill="none" fill-rule="evenodd">
        <g id="Generic---Desktop" transform="translate(-532.000000, -1698.000000)">
            <g id="Illustration-/-Devices" transform="translate(540.000000, 1698.000000)">
                <g id="Laptop">
                    <g id="Body" transform="translate(35.391359, 0.674595)">
                        <path d="M44.5508682,0 L59.2382827,0 L268.675633,0 C275.356627,0 279.700578,0.028587786 283.334371,1.13122762 C287.366375,2.53962277 289.634406,4.69174703 291.096223,8.54774801 C292.250056,12.0488584 292.365929,16.1610328 292.365929,22.5738538 L292.365929,175.226601 C292.365929,181.639645 292.24959,185.76656 291.100886,189.253377 C289.634173,193.123001 287.307623,195.261055 283.28984,196.664537 C279.641826,197.771867 275.355461,197.800455 268.674468,197.800455 C268.485387,197.981808 23.5669156,197.800455 23.5669156,197.800455 C16.8854558,197.800455 12.3342388,197.771867 8.7013786,196.669227 C4.66960789,195.261055 2.51232029,193.108931 1.0498038,189.252483 C-0.103562861,185.75182 0.00251796239,181.639645 0.00251796239,175.226601 L0.00251796239,22.5738538 C0.00251796239,16.1612561 -0.103562861,12.0345645 1.04514091,8.54707798 C2.51232029,4.67745314 4.6164509,2.53962277 8.63423293,1.13591781 C12.2813149,0.028587786 16.5674465,0 23.2489063,0 L44.5508682,0 Z" id="Fill" fill="#F2F5F7"></path>
                        <path d="M45.8472651,1.78673662 L60.3471525,1.78673662 L267.110433,1.78673662 C273.706124,1.78673662 277.994613,1.81480816 281.58201,2.8975359 C285.562533,4.28049744 287.801607,6.39375742 289.24476,10.1801245 C290.38386,13.6180099 290.498254,17.6559243 290.498254,23.952939 L290.498254,173.848996 C290.498254,180.14623 290.3834,184.198619 289.249363,187.622468 C287.801377,191.422213 285.504531,193.521657 281.538048,194.899794 C277.93661,195.987127 273.704973,196.015198 267.109282,196.015198 C266.922616,196.193277 25.1312331,196.015198 25.1312331,196.015198 C18.5350813,196.015198 14.0419737,195.987127 10.4554974,194.904399 C6.47520384,193.521657 4.34546023,191.408397 2.90161697,187.621591 C1.76297635,184.184144 1.86770275,180.14623 1.86770275,173.848996 L1.86770275,23.952939 C1.86770275,17.6561436 1.76297635,13.6039742 2.89701361,10.1794666 C4.34546023,6.37972166 6.42272556,4.28049744 10.389209,2.90214138 C13.9897256,1.81480816 18.2211323,1.78673662 24.8172841,1.78673662 L45.8472651,1.78673662 Z" id="inner-Border" stroke="#424B5A" stroke-width="0.5"></path>
                        <path d="M147.426425,7.42054054 C146.554941,7.42054054 145.848466,8.12526703 145.848466,8.99459459 C145.848466,9.86392216 146.554941,10.5686486 147.426425,10.5686486 C148.297909,10.5686486 149.004383,9.86392216 149.004383,8.99459459 C149.004383,8.12526703 148.297909,7.42054054 147.426425,7.42054054" id="Camera" fill="#424B5A"></path>
                        <path d="M268.675633,0.670026234 C275.284818,0.670026234 279.534579,0.698837362 283.050867,1.76551913 C286.874207,3.10132809 289.047814,5.09309275 290.433859,8.74897922 C291.550622,12.1379719 291.666495,16.2298221 291.666495,22.5738538 L291.666495,175.226601 C291.666495,181.570856 291.550622,185.648412 290.438755,189.023558 C289.047814,192.693068 286.932026,194.739551 283.123142,196.07067 C279.592632,197.141595 275.284818,197.211055 268.763063,197.211055 L23.3361024,197.211055 C16.6397213,197.211055 12.3894941,197.141595 8.87367251,196.075137 C5.05079942,194.739775 3.09891227,192.727686 1.71193465,189.071799 C0.595871138,185.683253 0.701951961,181.570856 0.701951961,175.226601 L0.701951961,22.5738538 C0.701951961,16.2298221 0.595871138,12.1522658 1.70727176,8.77712032 C3.09891227,5.10760998 5.10372326,3.10132809 8.91237452,1.77020931 C12.4424179,0.698837362 16.6397213,0.670026234 23.2489063,0.670026234 L268.675633,0.670026234 Z M44.5508682,0 L23.2489063,0 C16.5674465,0 12.2813149,0.028587786 8.63423293,1.13591781 C4.6164509,2.53962277 2.51232029,4.67745314 1.04514091,8.54707798 C-0.103562861,12.0345645 0.00251796239,16.1612561 0.00251796239,22.5738538 L0.00251796239,175.226601 C0.00251796239,181.639645 -0.103562861,185.75182 1.0498038,189.252483 C2.51232029,193.108931 4.66960789,195.261055 8.7013786,196.669227 C12.3342388,197.771867 16.8854558,197.800455 23.5669156,197.800455 C23.5669156,197.800455 268.485387,197.981808 268.674468,197.800455 C275.355461,197.800455 279.641826,197.771867 283.28984,196.664537 C287.307623,195.261055 289.634173,193.123001 291.100886,189.253377 C292.24959,185.76656 292.365929,181.639645 292.365929,175.226601 L292.365929,22.5738538 C292.365929,16.1610328 292.250056,12.0488584 291.096223,8.54774801 C289.634406,4.69174703 287.366375,2.53962277 283.334371,1.13122762 C279.700578,0.028587786 275.356627,0 268.675633,0 L59.2382827,0 L44.5508682,0 Z" id="Border" fill="#424B5A"></path>
                    </g>
                    <g id="Screen" transform="translate(51.170946, 15.515676)">
                        <polygon id="Fill-8" fill="#FFFFFF" points="0.258754146 170.002207 262.851982 170.002207 262.851982 0.220495729 0.258754146 0.220495729"></polygon>
                        <path d="M263.105106,0 L262.593228,0 L0.511877638,0 L0,0 L0,0.440991458 L0,169.781711 L0,170.222703 L0.511877638,170.222703 L262.593228,170.222703 L263.105106,170.222703 L263.105106,169.781711 L263.105106,0.440991458 L263.105106,0 Z M0.511877638,169.781711 L262.593228,169.781711 L262.593228,0.440991458 L0.511877638,0.440991458 L0.511877638,169.781711 Z" id="Border" fill="#424B5A"></path>
                    </g>
                    <g id="IllustrationDesk" transform="translate(87.000000, 44.000000)">
                        <circle id="Oval" fill="#DB432B" opacity="0.8" cx="18.5" cy="22.5" r="16.5"></circle>
                        <rect id="Rectangle" fill="#887777" x="51" y="52" width="150" height="11" rx="1"></rect>
                        <rect id="Rectangle" fill="#887777" x="51" y="84" width="75" height="11" rx="1"></rect>
                        <rect id="Rectangle" fill="#887777" x="0" y="84" width="35" height="27" rx="1"></rect>
                        <rect id="Rectangle" fill="#887777" x="0" y="52" width="35" height="11" rx="1"></rect>
                        <rect id="Rectangle" fill="#887777" x="0" y="68" width="35" height="11" rx="1"></rect>
                        <rect id="Rectangle" fill="#887777" x="0" y="68" width="35" height="11" rx="1"></rect>
                        <rect id="Rectangle" fill="#887777" x="51" y="100" width="75" height="11" rx="1"></rect>
                        <rect id="Rectangle" fill="#887777" x="132" y="84" width="69" height="27" rx="1"></rect>
                        <rect id="Rectangle" fill="#887777" x="51" y="68" width="150" height="11" rx="1"></rect>
                        <text id="THE-GUILD" font-family="OpenSans-Light, Open Sans" font-size="30" font-weight="300" fill="#333333">
                            <tspan x="51.4760742" y="32">THE GUILD</tspan>
                        </text>
                    </g>
                    <g id="Base" transform="translate(0.676268, 195.857297)">
                        <rect id="Rectangle-7" fill="#424B5A" x="90.6199123" y="0" width="174.251722" height="9.44432432"></rect>
                        <path d="M153.075943,0 C153.066735,0.0736644346 153.061991,0.148712052 153.061991,0.224864865 L153.061991,3.8227027 C153.061991,4.81621819 153.869393,5.62162162 154.865373,5.62162162 L207.388854,5.62162162 C208.384834,5.62162162 209.192235,4.81621819 209.192235,3.8227027 L209.192235,0.224864865 C209.192235,0.148712052 209.187492,0.0736644346 209.178283,2.68873212e-13 L359.098309,0 L359.098309,3.14810811 C359.098309,8.11568553 355.061303,12.1427027 350.081403,12.1427027 L9.0169067,12.1427027 C4.03700664,12.1427027 6.09861867e-16,8.11568553 0,3.14810811 L0,0 L153.075943,2.68698457e-13 Z" id="Combined-Shape" fill="#F2F5F7"></path>
                        <path d="M152.611146,0.674594595 L0.676268003,0.674594595 L0.676268003,3.14810811 C0.676268003,7.74311723 4.41049914,11.4681081 9.0169067,11.4681081 L350.081403,11.4681081 C354.68781,11.4681081 358.422041,7.74311723 358.422041,3.14810811 L358.422041,0.674594595 L209.868503,0.674594595 L209.868503,3.59783784 C209.868503,4.96392163 208.758327,6.07135135 207.388854,6.07135135 L155.090795,6.07135135 C153.721323,6.07135135 152.611146,4.96392163 152.611146,3.59783784 L152.611146,0.674594595 Z M153.301366,0 C153.292158,0.0736644346 153.287414,0.148712052 153.287414,0.224864865 L153.287414,3.59783784 C153.287414,4.59135332 154.094815,5.39675676 155.090795,5.39675676 L207.388854,5.39675676 C208.384834,5.39675676 209.192235,4.59135332 209.192235,3.59783784 L209.192235,0.224864865 C209.192235,0.148712052 209.187492,0.0736644346 209.178283,0 L359.098309,0 L359.098309,3.14810811 C359.098309,8.11568553 355.061303,12.1427027 350.081403,12.1427027 L9.0169067,12.1427027 C4.03700664,12.1427027 0,8.11568553 0,3.14810811 L0,0 L153.301366,0 Z" id="Combined-Shape" fill="#424B5A" fill-rule="nonzero"></path>
                    </g>
                    <rect id="Rectangle-8" fill="#424B5A" x="152.385723" y="195.857297" width="59.7370069" height="1"></rect>
                </g>
                <g id="iPhoneX" transform="translate(-8.000000, 69.000000)">
                    <g id="iphone-x-light">
                        <g id="Buttons" transform="translate(0.000000, 21.130790)" fill="#424B5A" fill-rule="nonzero">
                            <path d="M80.8041705,16.6282262 L80.8596027,16.6282262 L81.1547802,16.6282262 C81.1842979,16.6282262 81.2433334,16.6986633 81.2433334,16.7456213 C81.2433334,16.7691003 81.2433334,35.7871053 81.2433334,35.8340633 C81.2433334,35.8575423 81.1842979,35.9279794 81.1547802,35.9279794 L80.8596027,35.9279794 L80.8041705,35.9279794 L80.8041705,36.0453745 L80.2433334,36.0453745 L80.2433334,16.5343102 L80.8041705,16.5343102 L80.8041705,16.6282262 Z" id="Right-#4"></path>
                            <path d="M0.394804214,27.78076 L0.394804214,27.6202339 L1.00377339,27.6202339 L1.00377339,40.0171557 L0.394804214,40.0171557 L0.394804214,39.9428916 L0.10637718,39.9428916 C0.0743261701,39.9428916 0.0102241512,39.8724545 0.0102241512,39.8254965 C0.0102241512,39.7785384 0.0102241512,27.9216341 0.0102241512,27.8746761 C-0.0218268583,27.827718 0.0743261701,27.78076 0.10637718,27.78076 L0.394804214,27.78076 Z" id="Left-#3"></path>
                            <path d="M0.395454728,11.8150275 L0.395454728,11.6910582 L1.00837773,11.6910582 L1.00837773,24.08798 L0.395454728,24.08798 L0.395454728,23.977159 L0.105155041,23.977159 C0.0728959357,23.977159 0.0083777254,23.906722 0.0083777254,23.8597639 C0.0083777254,23.8362849 0.0083777254,11.9559016 0.0083777254,11.9089435 C0.0083777254,11.8619855 0.0728959357,11.8150275 0.105155041,11.8150275 L0.395454728,11.8150275 Z" id="Left-#2"></path>
                            <path d="M0.500594604,0.333787442 L0.500594604,0.16901169 L1.12555492,0.16901169 L1.12555492,6.6726998 L0.500594604,6.6726998 L0.500594604,6.60268537 L0.224232862,6.60268537 C0.191340214,6.60268537 0.125554918,6.53224831 0.125554918,6.48529027 C0.125554918,6.46181125 0.125554918,0.474661552 0.125554918,0.427703515 C0.125554918,0.380745478 0.191340214,0.333787442 0.224232862,0.333787442 L0.500594604,0.333787442 Z" id="Left-#1"></path>
                        </g>
                        <g id="Body" transform="translate(0.451881, 0.000000)">
                            <rect id="body" fill="#F2F5F7" x="0.206500857" y="0" width="79.7300544" height="165" rx="9.55935066"></rect>
                            <path d="M9.80581161,0.674386921 C4.87860923,0.674386921 0.884322499,4.64843343 0.884322499,9.55066824 L0.884322499,155.449332 C0.884322499,160.351567 4.87860923,164.325613 9.80581161,164.325613 L70.3372445,164.325613 C75.2644469,164.325613 79.2587336,160.351567 79.2587336,155.449332 L79.2587336,9.55066824 C79.2587336,4.64843343 75.2644469,0.674386921 70.3372445,0.674386921 L9.80581161,0.674386921 Z M9.80581161,-1.65244748e-14 L70.3372445,-1.65244748e-14 C75.6387974,-1.74934193e-14 79.9365552,4.27597982 79.9365552,9.55066824 L79.9365552,155.449332 C79.9365552,160.72402 75.6387974,165 70.3372445,165 L9.80581161,165 C4.50425867,165 0.206500857,160.72402 0.206500857,155.449332 L0.206500857,9.55066824 C0.206500857,4.27597982 4.50425867,-2.03473375e-14 9.80581161,-1.65244748e-14 Z" id="Border" fill="#424B5A" fill-rule="nonzero"></path>
                        </g>
                        <g id="Screen" transform="translate(3.163168, 2.472752)">
                            <path d="M68.066923,0.340491414 C64.7269318,0.340491414 59.1759605,0.340491414 58.8466656,0.340491414 C58.0469494,0.340491414 57.529486,0.929716174 57.3413175,1.99032074 C56.7062487,5.76135921 54.636395,6.0206181 54.0248473,6.0206181 C53.5073839,6.0206181 21.2364832,6.0206181 20.6954987,6.0206181 C20.083951,6.0206181 17.9905763,5.73779022 17.3790286,1.99032074 C17.2143811,0.929716174 16.6969177,0.340491414 15.8736804,0.340491414 C15.5208645,0.340491414 9.99341427,0.340491414 6.65342308,0.340491414 C3.3134319,0.340491414 0.326256683,3.87583997 0.326256683,7.2462056 C0.326256683,10.6165712 0.326256683,149.272942 0.326256683,153.27967 C0.326256683,157.451381 4.56004833,159.714004 6.58285989,159.714004 C7.68834993,159.714004 67.0319961,159.714004 68.1374862,159.714004 C70.1602977,159.714004 74.3940894,157.451381 74.3940894,153.27967 C74.3940894,149.272942 74.3940894,9.15529382 74.3940894,7.2462056 C74.4176104,3.87583997 71.4069141,0.340491414 68.066923,0.340491414 Z" fill="#FFFFFF"></path>
                            <path d="M68.066923,0.115695774 C71.4626342,0.115695774 74.644965,3.67399572 74.6200299,7.2462056 L74.6200299,153.27967 C74.6200299,155.254807 73.7049173,156.960573 72.1689784,158.233928 C70.903281,159.283242 69.2924791,159.9388 68.1374862,159.9388 L6.58285989,159.9388 C5.42786697,159.9388 3.81706505,159.283242 2.5513676,158.233928 C1.01542877,156.960573 0.100316136,155.254807 0.100316136,153.27967 L0.100316136,7.2462056 C0.100316136,3.66385153 3.26558155,0.115695774 6.65342308,0.115695774 L15.8736804,0.115695774 C16.8152381,0.115695774 17.4206664,0.785845593 17.6020487,1.95429411 C17.8668526,3.57697138 18.423995,4.6337614 19.1785509,5.23534878 C19.6859892,5.6399158 20.2207865,5.79582246 20.6954987,5.79582246 L54.0248473,5.79582246 C54.5052085,5.79582246 55.0291166,5.64544923 55.5330713,5.24411021 C56.2840286,4.64606339 56.8433229,3.58707544 57.1188167,1.95124454 C57.3260153,0.78337781 57.9292142,0.115695774 58.8466656,0.115695774 L68.066923,0.115695774 Z M68.066923,0.565287054 L58.8466656,0.565287054 C58.1795401,0.565287054 57.7365869,1.05559271 57.5641517,2.0274682 C57.2716981,3.76405812 56.6597646,4.92271513 55.8154528,5.59510748 C55.2233201,6.06666962 54.6005664,6.24541374 54.0248473,6.24541374 L20.6954987,6.24541374 C20.1249745,6.24541374 19.4910114,6.06059778 18.8959763,5.58619217 C18.047871,4.91002039 17.4377322,3.75270655 17.1557357,2.02463414 C17.0050135,1.05373144 16.5637419,0.565287054 15.8736804,0.565287054 L6.65342308,0.565287054 C3.52794731,0.565287054 0.55219723,3.90100251 0.55219723,7.2462056 L0.55219723,153.27967 C0.55219723,155.111886 1.40192759,156.69578 2.8406403,157.88853 C4.02951778,158.874157 5.54078858,159.489209 6.58285989,159.489209 L68.1374862,159.489209 C69.1795575,159.489209 70.6908283,158.874157 71.8797057,157.88853 C73.3184184,156.69578 74.1681488,155.111886 74.1681488,153.27967 L74.1681488,7.82911011 C74.1681488,7.40489907 74.1681488,7.40489907 74.1681543,7.24464479 C74.1914258,3.9100319 71.2000859,0.565287054 68.066923,0.565287054 Z" id="border" fill="#424B5A" fill-rule="nonzero"></path>
                        </g>
                        <g id="Cam-&amp;-Speaker" transform="translate(32.987320, 3.371935)" fill="#424B5A">
                            <ellipse id="Camera" cx="13.7503651" cy="1.34877384" rx="1.38765153" ry="1.34877384"></ellipse>
                            <rect id="Front-Speaker" x="0" y="0.735694823" width="9.96586097" height="1.22615804" rx="0.613079019"></rect>
                        </g>
                        <g id="IllustrationPhone" transform="translate(11.000000, 25.000000)">
                            <rect id="Rectangle" fill="#887777" x="12" y="98" width="35" height="22" rx="1"></rect>
                            <rect id="Rectangle" fill="#887777" x="12" y="66" width="35" height="11" rx="1"></rect>
                            <rect id="Rectangle" fill="#887777" x="12" y="82" width="35" height="11" rx="1"></rect>
                            <circle id="Oval" fill="#DB432B" opacity="0.8" cx="29.5" cy="41.5" r="16.5"></circle>
                            <text id="THE-GUILD" font-family="OpenSans-Light, Open Sans" font-size="12" font-weight="300" fill="#333333">
                                <tspan x="0.190429688" y="13">THE GUILD</tspan>
                            </text>
                        </g>
                    </g>
                </g>
            </g>
        </g>
    </g>
</svg>
